<svg width="26.666748" height="26.666687" viewBox="0 0 26.6667 26.6667" fill="none" xmlns="http://www.w3.org/2000/svg" xmlns:xlink="http://www.w3.org/1999/xlink">
	<defs/>
	<path id="Vector" d="M13.3333 2.22235C7.21094 2.22235 2.22217 7.21124 2.22217 13.3334C2.22217 19.4557 7.21094 24.4446 13.3333 24.4446C19.4556 24.4446 24.4443 19.4557 24.4443 13.3334C24.4443 7.21124 19.4556 2.22235 13.3333 2.22235ZM17.0667 15.889C17.3889 16.2112 17.3889 16.7446 17.0667 17.0668C16.8999 17.2335 16.6887 17.3112 16.4778 17.3112C16.2666 17.3112 16.0554 17.2335 15.8889 17.0668L13.3333 14.5112L10.7778 17.0668C10.6111 17.2335 10.3999 17.3112 10.1887 17.3112C9.97778 17.3112 9.7666 17.2335 9.59985 17.0668C9.27783 16.7446 9.27783 16.2112 9.59985 15.889L12.1555 13.3334L9.59985 10.7779C9.27783 10.4557 9.27783 9.92236 9.59985 9.60016C9.92212 9.27789 10.4556 9.27789 10.7778 9.60016L13.3333 12.1557L15.8889 9.60016C16.2109 9.27789 16.7444 9.27789 17.0667 9.60016C17.3889 9.92236 17.3889 10.4557 17.0667 10.7779L14.511 13.3334L17.0667 15.889Z" fill="#767676" fill-opacity="1.000000" fill-rule="nonzero"/>
	<g opacity="0.000000">
		<path id="Vector" d="M26.6667 26.6666L0 26.6666L0 -6.10352e-05L26.6667 -6.10352e-05L26.6667 26.6666Z" fill="#767676" fill-opacity="1.000000" fill-rule="evenodd"/>
	</g>
</svg>
