<svg width="25" height="25" viewBox="0 0 12 7.64835" fill="none" xmlns="http://www.w3.org/2000/svg" xmlns:xlink="http://www.w3.org/1999/xlink">
	<path id="path" d="M11.9238 3.59076C11.8164 3.44412 9.26221 0 6 0C2.73779 0 0.183105 3.44412 0.0761719 3.59064C0.0512695 3.62451 0.0327148 3.66141 0.0195312 3.70132C0.00634766 3.74121 0 3.78214 0 3.8241C0 3.86606 0.00634766 3.90701 0.0195312 3.9469C0.0327148 3.98679 0.0512695 4.02368 0.0761719 4.05759C0.183105 4.20422 2.73779 7.64835 6 7.64835C9.26221 7.64835 11.8164 4.20419 11.9238 4.05771C11.9487 4.0238 11.9673 3.98694 11.9805 3.94702C11.9937 3.90714 12 3.86621 12 3.82425C12 3.78226 11.9937 3.74133 11.9805 3.70145C11.9673 3.66153 11.9487 3.62466 11.9238 3.59076ZM6 6.85715C3.59668 6.85715 1.51562 4.5712 0.899414 3.82391C1.51465 3.07596 3.5918 0.791199 6 0.791199C8.40283 0.791199 10.4839 3.07675 11.1006 3.82443C10.4849 4.57239 8.4082 6.85715 6 6.85715Z" fill="#000000" fill-opacity="1.000000" fill-rule="nonzero"/>
	<path id="path" d="M6 1.45056C4.69141 1.45056 3.62646 2.51541 3.62646 3.82419C3.62646 5.133 4.69141 6.19785 6 6.19785C7.30908 6.19785 8.37354 5.133 8.37354 3.82419C8.37354 2.51541 7.30908 1.45056 6 1.45056ZM6 5.40662C5.12744 5.40662 4.41748 4.69675 4.41748 3.82419C4.41748 2.95163 5.12744 2.24179 6 2.24179C6.87256 2.24179 7.58252 2.95163 7.58252 3.82419C7.58252 4.69675 6.87256 5.40662 6 5.40662Z" fill="#000000" fill-opacity="1.000000" fill-rule="nonzero"/>
</svg>
