<svg width="25" height="25" viewBox="0 0 12.0068 9.00003" fill="none" xmlns="http://www.w3.org/2000/svg" xmlns:xlink="http://www.w3.org/1999/xlink">
	<path id="path" d="M7.49316 4.60107L8.1748 3.91953C8.22412 4.10504 8.25342 4.29901 8.25342 4.50003C8.25342 5.74072 7.24414 6.75003 6.00342 6.75003C5.80225 6.75003 5.6084 6.72095 5.42285 6.67136L6.10449 5.98981C6.28467 5.97757 6.45703 5.93411 6.62109 5.85941C6.78564 5.7847 6.93164 5.6835 7.05908 5.55585C7.18701 5.42819 7.28809 5.28217 7.36279 5.11783C7.4375 4.95346 7.48096 4.78122 7.49316 4.60107ZM11.9561 4.31787C11.9102 4.23489 11.2559 3.08862 9.97705 2.11719L9.43115 2.6629C10.3638 3.34848 10.9546 4.14807 11.187 4.50058C10.7427 5.17737 8.99902 7.50003 6.00342 7.50003C5.5542 7.50003 5.13623 7.44257 4.74316 7.35086L4.12695 7.96707C4.69385 8.14081 5.31641 8.25003 6.00342 8.25003C9.9292 8.25003 11.8755 4.82776 11.9561 4.68219C12.0239 4.56073 12.0239 4.4393 11.9561 4.31787ZM10.3936 0.640137L2.14355 8.89014C2.07031 8.96338 1.97412 9.00003 1.87842 9.00003C1.78271 9.00003 1.68652 8.96338 1.61328 8.89014C1.54004 8.81696 1.50342 8.72858 1.50342 8.62503C1.50342 8.52145 1.54004 8.43307 1.61328 8.35989L2.66309 7.31027C0.96582 6.28586 0.104004 4.77789 0.0507812 4.68219C-0.0170898 4.5607 -0.0170898 4.43924 0.0507812 4.31778C0.131348 4.17227 2.07764 0.750031 6.00342 0.750031C7.01855 0.750031 7.89746 0.981598 8.64941 1.32397L9.86328 0.109894C10.0098 -0.0366211 10.2471 -0.0366211 10.3936 0.109894C10.54 0.256439 10.54 0.493713 10.3936 0.640137ZM3.22217 6.75107L4.17139 5.80164C3.90918 5.43378 3.75342 4.98517 3.75342 4.50003C3.75342 3.25934 4.7627 2.25003 6.00342 2.25003C6.48877 2.25003 6.93701 2.40591 7.30518 2.66806L8.07275 1.90033C7.46631 1.65744 6.77686 1.50003 6.00342 1.50003C3.00781 1.50003 1.26416 3.82269 0.819824 4.49945C1.10205 4.92715 1.91309 6.00977 3.22217 6.75107ZM4.71582 5.25714L6.76074 3.21255C6.5376 3.08084 6.28076 3.00003 6.00342 3.00003C5.17627 3.00003 4.50342 3.67297 4.50342 4.50003C4.50342 4.77734 4.58398 5.03412 4.71582 5.25714Z" fill="#000000" fill-opacity="1.000000" fill-rule="nonzero"/>
</svg>
