<svg width="480.000977" height="510.016235" viewBox="0 0 480.001 510.016" fill="none" xmlns="http://www.w3.org/2000/svg" xmlns:xlink="http://www.w3.org/1999/xlink">
	<defs/>
	<path id="Vector" d="M105.403 0.616089L367.618 0.616089C374.232 0.616089 379.603 5.98657 379.603 12.6001L379.603 323.002C379.603 329.615 374.232 334.986 367.618 334.986L105.403 334.986C98.79 334.986 93.4194 329.615 93.4194 323.002L93.4194 12.6029C93.4194 5.98938 98.79 0.618896 105.403 0.618896L105.403 0.616089Z" fill="#FFFFFF" fill-opacity="1.000000" fill-rule="nonzero"/>
	<path id="Vector" d="M367.618 335.604L105.403 335.604C98.4556 335.604 92.8008 329.952 92.8008 323.002L92.8008 12.6027C92.8008 5.65479 98.4526 0 105.403 0L367.618 0C374.566 0 380.221 5.65198 380.221 12.6027L380.221 323.004C380.221 329.952 374.569 335.607 367.618 335.607L367.618 335.604ZM105.403 1.23462C99.1357 1.23462 94.0356 6.33484 94.0356 12.6027L94.0356 323.004C94.0356 329.272 99.1357 334.372 105.403 334.372L367.618 334.372C373.886 334.372 378.986 329.272 378.986 323.004L378.986 12.6027C378.986 6.33484 373.886 1.23462 367.618 1.23462L105.403 1.23462Z" fill="#000000" fill-opacity="1.000000" fill-rule="nonzero"/>
	<path id="Vector" d="M379.602 120.453C379.262 120.453 378.986 120.177 378.986 119.837L378.986 82.1266C378.986 81.7865 379.262 81.5106 379.602 81.5106C379.942 81.5106 380.218 81.7865 380.218 82.1266L380.218 119.837C380.218 120.177 379.942 120.453 379.602 120.453Z" fill="#000000" fill-opacity="1.000000" fill-rule="nonzero"/>
	<path id="Vector" d="M109.319 17.1737L256.195 17.1737L256.195 318.429L109.319 318.429L109.319 17.1737Z" fill="#FFFFFF" fill-opacity="1.000000" fill-rule="evenodd"/>
	<path id="Vector" d="M256.195 319.047L109.319 319.047C108.979 319.047 108.703 318.771 108.703 318.431L108.703 17.1736C108.703 16.8335 108.979 16.5576 109.319 16.5576L256.195 16.5576C256.535 16.5576 256.811 16.8335 256.811 17.1736L256.811 318.428C256.811 318.768 256.535 319.044 256.195 319.044L256.195 319.047ZM109.935 317.812L255.577 317.812L255.577 17.7922L109.935 17.7922L109.935 317.812Z" fill="#000000" fill-opacity="1.000000" fill-rule="nonzero"/>
	<path id="Vector" d="M271.336 17.174L363.702 17.174L363.702 318.429L271.336 318.429L271.336 17.174Z" fill="#FFFFFF" fill-opacity="1.000000" fill-rule="evenodd"/>
	<path id="Vector" d="M363.703 319.047L271.336 319.047C270.997 319.047 270.721 318.771 270.721 318.431L270.721 17.1737C270.721 16.8336 270.997 16.5577 271.336 16.5577L363.703 16.5577C364.042 16.5577 364.318 16.8336 364.318 17.1737L364.318 318.428C364.318 318.768 364.042 319.044 363.703 319.044L363.703 319.047ZM271.953 317.812L363.083 317.812L363.083 17.7924L271.953 17.7924L271.953 317.812Z" fill="#000000" fill-opacity="1.000000" fill-rule="nonzero"/>
	<path id="Vector" d="M66.5415 338.69L398.907 338.69L398.907 351.825L66.5415 351.825L66.5415 338.69Z" fill="#FFFFFF" fill-opacity="1.000000" fill-rule="evenodd"/>
	<path id="Vector" d="M398.91 352.443L66.5415 352.443C66.2017 352.443 65.9258 352.167 65.9258 351.827L65.9258 338.692C65.9258 338.352 66.2017 338.076 66.5415 338.076L398.907 338.076C399.248 338.076 399.523 338.352 399.523 338.692L399.523 351.827C399.523 352.167 399.248 352.443 398.907 352.443L398.91 352.443ZM67.1606 351.209L398.292 351.209L398.292 339.308L67.1606 339.308L67.1606 351.209Z" fill="#000000" fill-opacity="1.000000" fill-rule="nonzero"/>
	<path id="Vector" d="M361.506 305.427C360.589 305.12 359.6 304.953 358.555 304.953L356.142 304.953L356.142 298.136L314.223 298.136L314.223 322.578C314.223 332.238 322.051 340.069 331.708 340.069L338.656 340.069C347.848 340.069 355.375 332.973 356.083 323.96L358.558 323.96C363.747 323.96 367.596 319.493 367.596 314.303L367.596 314.231C367.596 310.087 365.144 306.645 361.512 305.427L361.506 305.427ZM358.204 318.531L356.139 318.531L356.139 310.385L358.204 310.385C360.428 310.385 362.228 312.235 362.228 314.459C362.228 316.684 360.425 318.534 358.204 318.534L358.204 318.531Z" fill="#FFFFFF" fill-opacity="1.000000" fill-rule="nonzero"/>
	<path id="Vector" d="M338.653 340.688L331.705 340.688C321.722 340.688 313.601 332.564 313.601 322.578L313.601 298.136C313.601 297.796 313.877 297.52 314.217 297.52L356.136 297.52C356.476 297.52 356.752 297.796 356.752 298.136L356.752 304.335L358.549 304.335C359.639 304.335 360.698 304.505 361.699 304.839C365.65 306.166 368.204 309.85 368.204 314.228L368.204 314.301C368.204 319.967 363.873 324.576 358.549 324.576L356.638 324.576C355.634 333.653 347.842 340.685 338.647 340.685L338.653 340.688ZM314.838 298.755L314.838 322.578C314.838 331.884 322.405 339.453 331.708 339.453L338.656 339.453C347.401 339.453 354.784 332.628 355.467 323.916C355.492 323.595 355.76 323.347 356.083 323.347L358.558 323.347C363.279 323.347 366.977 319.376 366.977 314.306L366.977 314.234C366.977 310.396 364.753 307.169 361.314 306.015C360.442 305.722 359.514 305.575 358.558 305.575L356.144 305.575C355.804 305.575 355.528 305.299 355.528 304.959L355.528 298.761L314.844 298.761L314.838 298.755ZM358.204 319.15L356.139 319.15C355.799 319.15 355.522 318.874 355.522 318.534L355.522 310.388C355.522 310.048 355.799 309.772 356.139 309.772L358.204 309.772C360.765 309.772 362.847 311.876 362.847 314.462C362.847 317.049 360.765 319.153 358.204 319.153L358.204 319.15ZM356.757 317.915L358.204 317.915C360.082 317.915 361.612 316.366 361.612 314.46C361.612 312.553 360.082 311.004 358.204 311.004L356.757 311.004L356.757 317.915Z" fill="#000000" fill-opacity="1.000000" fill-rule="nonzero"/>
	<path id="Vector" d="M338.653 340.688L331.705 340.688C321.722 340.688 313.601 332.564 313.601 322.578L313.601 298.136C313.601 297.796 313.877 297.52 314.217 297.52C314.557 297.52 314.833 297.796 314.833 298.136L314.833 322.578C314.833 331.884 322.399 339.453 331.703 339.453L338.65 339.453C347.396 339.453 354.778 332.628 355.461 323.916C355.486 323.595 355.754 323.347 356.077 323.347L358.552 323.347C363.273 323.347 366.972 319.376 366.972 314.306L366.972 314.234C366.972 312.461 366.492 310.775 365.583 309.357C365.4 309.07 365.483 308.688 365.771 308.504C366.058 308.32 366.439 308.404 366.623 308.691C367.66 310.307 368.206 312.224 368.206 314.234L368.206 314.306C368.206 319.972 363.875 324.582 358.552 324.582L356.64 324.582C355.637 333.659 347.845 340.691 338.65 340.691L338.653 340.688ZM358.031 319.15L356.705 319.15C356.052 319.15 355.522 318.621 355.522 317.968L355.522 310.951C355.522 310.299 356.052 309.769 356.705 309.769L358.204 309.769C359.505 309.769 360.759 310.332 361.64 311.316C362.535 312.314 362.964 313.649 362.816 314.978C362.557 317.355 360.498 319.15 358.028 319.15L358.031 319.15ZM356.757 317.915L358.031 317.915C359.84 317.915 361.403 316.567 361.59 314.844C361.699 313.86 361.381 312.877 360.72 312.141C360.071 311.419 359.154 311.004 358.201 311.004L356.754 311.004L356.754 317.915L356.757 317.915ZM361.506 306.046C361.442 306.046 361.375 306.035 361.311 306.012C360.439 305.72 359.511 305.572 358.555 305.572L356.707 305.572C356.055 305.572 355.525 305.042 355.525 304.39L355.525 298.758L321.502 298.758C321.162 298.758 320.886 298.482 320.886 298.142C320.886 297.802 321.162 297.526 321.502 297.526L355.576 297.526C356.228 297.526 356.757 298.055 356.757 298.708L356.757 304.34L358.555 304.34C359.645 304.34 360.704 304.51 361.704 304.845C362.027 304.953 362.2 305.302 362.094 305.625C362.008 305.884 361.768 306.046 361.509 306.046L361.506 306.046Z" fill="#000000" fill-opacity="1.000000" fill-rule="nonzero"/>
	<path id="Vector" d="M343.002 317.536C343.015 321.842 339.535 325.343 335.229 325.355C330.924 325.367 327.424 321.886 327.413 317.579C327.4 313.273 330.881 309.772 335.186 309.76C339.491 309.747 342.991 313.229 343.002 317.536Z" fill="#FFFFFF" fill-opacity="1.000000" fill-rule="evenodd"/>
	<path id="Vector" d="M335.181 326.003C330.54 326.003 326.767 322.227 326.767 317.586C326.767 312.946 330.54 309.17 335.181 309.17C339.821 309.17 343.594 312.946 343.594 317.586C343.594 322.227 339.821 326.003 335.181 326.003ZM335.181 310.407C331.223 310.407 328.001 313.629 328.001 317.589C328.001 321.549 331.22 324.771 335.181 324.771C339.141 324.771 342.36 321.549 342.36 317.589C342.36 313.629 339.141 310.407 335.181 310.407Z" fill="#000000" fill-opacity="1.000000" fill-rule="nonzero"/>
	<path id="Vector" d="M336.732 291.486C336.618 291.486 336.503 291.456 336.4 291.389C336.303 291.328 334.015 289.828 333.449 287.072C333.07 285.218 333.558 283.273 334.904 281.286C338.555 275.893 337.362 273.513 336.097 270.994L335.994 270.787C335.84 270.484 335.966 270.113 336.27 269.96C336.576 269.807 336.944 269.932 337.097 270.236L337.2 270.439C338.505 273.039 339.984 275.988 335.927 281.98C334.778 283.674 334.352 285.302 334.656 286.813C335.11 289.056 337.05 290.341 337.069 290.352C337.354 290.539 337.438 290.921 337.25 291.205C337.133 291.389 336.933 291.486 336.732 291.486Z" fill="#000000" fill-opacity="1.000000" fill-rule="nonzero"/>
	<path id="Vector" d="M406.658 88.3276L382.272 88.3276C379.594 71.2156 364.79 58.1252 346.925 58.1252C342.329 58.1252 337.942 59.0002 333.907 60.5778C324.813 44.1597 307.319 33.0397 287.223 33.0397C257.764 33.0397 233.885 56.9185 233.885 86.3767C233.885 87.0316 233.911 87.6782 233.936 88.3276L231.458 88.3276C210.898 88.3276 194.232 104.994 194.232 125.553C194.232 146.113 210.898 162.779 231.458 162.779L406.658 162.779C427.218 162.779 443.884 146.113 443.884 125.553C443.884 104.994 427.218 88.3276 406.658 88.3276Z" fill="#FFFFFF" fill-opacity="1.000000" fill-rule="nonzero"/>
	<path id="Vector" d="M410.643 158.897L235.443 158.897C214.577 158.897 197.602 141.921 197.602 121.055C197.602 100.189 214.577 83.2135 235.443 83.2135L237.28 83.2135C237.266 82.7704 237.252 82.3273 237.252 81.8785C237.252 52.1277 261.457 27.9229 291.208 27.9229C310.641 27.9229 328.586 38.4019 338.171 55.3104C342.256 53.7804 346.54 53.0056 350.91 53.0056C359.639 53.0056 368.081 56.1437 374.68 61.8403C381.076 67.3612 385.36 74.9335 386.781 83.208L410.643 83.208C431.509 83.208 448.485 100.183 448.485 121.049C448.485 141.916 431.509 158.891 410.643 158.891L410.643 158.897ZM235.443 84.4454C215.257 84.4454 198.833 100.869 198.833 121.055C198.833 141.241 215.257 157.665 235.443 157.665L410.643 157.665C430.829 157.665 447.253 141.241 447.253 121.055C447.253 100.869 430.829 84.4454 410.643 84.4454L386.257 84.4454C385.954 84.4454 385.694 84.2252 385.647 83.9242C382.955 66.7258 368.345 54.243 350.91 54.243C346.512 54.243 342.209 55.054 338.118 56.6537C337.828 56.7653 337.502 56.6482 337.354 56.3778C328.054 39.5863 310.374 29.1575 291.21 29.1575C262.14 29.1575 238.489 52.8077 238.489 81.8785C238.489 82.475 238.512 83.0686 238.534 83.6594L238.54 83.8071C238.545 83.9744 238.483 84.136 238.367 84.2587C238.25 84.3785 238.091 84.4482 237.923 84.4482L235.446 84.4482L235.443 84.4454Z" fill="#000000" fill-opacity="1.000000" fill-rule="nonzero"/>
	<path id="Vector" d="M284.558 465.503C284.558 465.503 298.85 494.351 314.908 508.216C317.617 510.554 321.833 509.264 322.845 505.833C323.428 503.849 324.002 501.204 324.473 497.681C326.24 484.51 314.393 450.214 314.393 450.214L309.117 448.513C307.266 447.917 305.304 449.049 304.895 450.952L304.343 453.522L298 447.937C296.556 446.666 294.337 446.855 293.145 448.366C290.72 451.437 286.958 457.17 284.555 465.503L284.558 465.503Z" fill="#FFFFFF" fill-opacity="1.000000" fill-rule="nonzero"/>
	<path id="Vector" d="M318.085 510.016C316.787 510.016 315.519 509.556 314.507 508.681C298.538 494.894 284.151 466.066 284.006 465.776C283.937 465.637 283.923 465.48 283.968 465.33C286.342 457.089 290.007 451.348 292.666 447.981C293.346 447.12 294.324 446.59 295.419 446.49C296.517 446.39 297.584 446.738 298.413 447.468L303.967 452.357L304.298 450.815C304.53 449.74 305.21 448.806 306.163 448.254C307.116 447.702 308.267 447.583 309.312 447.92L314.588 449.62C314.772 449.678 314.919 449.823 314.981 450.004C315.466 451.409 326.856 484.591 325.089 497.756C324.654 500.984 324.103 503.757 323.442 506C322.904 507.831 321.488 509.244 319.658 509.785C319.139 509.938 318.612 510.011 318.088 510.011L318.085 510.016ZM285.219 465.441C286.565 468.103 300.254 494.746 315.312 507.748C316.427 508.712 317.885 509.024 319.306 508.606C320.733 508.185 321.834 507.084 322.255 505.657C322.899 503.472 323.439 500.761 323.863 497.597C325.507 485.357 315.051 454.062 313.911 450.704L308.931 449.099C308.214 448.867 307.428 448.951 306.776 449.327C306.124 449.703 305.659 450.342 305.502 451.077L304.951 453.647C304.906 453.862 304.75 454.034 304.541 454.104C304.332 454.171 304.104 454.126 303.939 453.981L297.596 448.396C297.021 447.892 296.286 447.652 295.528 447.719C294.775 447.786 294.101 448.151 293.633 448.745C291.069 451.994 287.538 457.518 285.219 465.441Z" fill="#000000" fill-opacity="1.000000" fill-rule="nonzero"/>
	<path id="Vector" d="M319.375 505.37C319.217 505.37 319.058 505.309 318.938 505.189C302.609 488.791 288.939 463.123 288.803 462.866C288.644 462.565 288.758 462.192 289.059 462.033C289.36 461.874 289.733 461.988 289.892 462.289C290.029 462.546 303.615 488.052 319.811 504.32C320.05 504.562 320.05 504.952 319.811 505.192C319.69 505.312 319.532 505.373 319.375 505.373L319.375 505.37Z" fill="#000000" fill-opacity="1.000000" fill-rule="nonzero"/>
	<path id="Vector" d="M312.414 482.846C312.155 482.846 311.912 482.682 311.829 482.422C311.723 482.099 311.898 481.751 312.222 481.642L320.761 478.83C321.084 478.721 321.433 478.9 321.542 479.223C321.647 479.546 321.472 479.895 321.148 480.003L312.609 482.815C312.545 482.838 312.481 482.846 312.417 482.846L312.414 482.846Z" fill="#000000" fill-opacity="1.000000" fill-rule="nonzero"/>
	<path id="Vector" d="M306.799 473.724C306.54 473.724 306.297 473.56 306.213 473.301C306.107 472.977 306.283 472.629 306.606 472.52L317.336 468.987C317.66 468.881 318.008 469.056 318.117 469.379C318.223 469.703 318.047 470.051 317.724 470.16L306.994 473.694C306.93 473.716 306.866 473.724 306.801 473.724L306.799 473.724Z" fill="#000000" fill-opacity="1.000000" fill-rule="nonzero"/>
	<path id="Vector" d="M167.851 248.879C168.949 247.723 247.252 213.894 279.257 206.701C311.263 199.505 323.188 199.438 334.08 217.729C344.971 236.02 281.618 335.827 281.618 335.827L146.843 300.697L167.854 248.879L167.851 248.879Z" fill="#000000" fill-opacity="1.000000" fill-rule="nonzero"/>
	<path id="Vector" d="M243.698 287.426C243.614 287.426 243.528 287.409 243.447 287.373C243.135 287.234 242.996 286.868 243.135 286.556C258.19 252.951 283.047 228.941 283.295 228.702C283.541 228.465 283.931 228.473 284.167 228.721C284.405 228.966 284.396 229.359 284.148 229.593C283.9 229.83 259.213 253.684 244.261 287.061C244.158 287.289 243.932 287.426 243.698 287.426Z" fill="#FFFFFF" fill-opacity="1.000000" fill-rule="nonzero"/>
	<path id="Vector" d="M103.787 293.585C103.787 293.585 107.335 329.964 115.203 337.527C123.07 345.094 217.473 337.527 217.473 337.527C217.473 337.527 224.976 349.818 229.878 382.668C234.78 415.518 240.249 459.742 248.37 470.53L319.058 455.269C319.058 455.269 295.611 314.552 279.327 295.413C263.043 276.275 144.561 273.271 144.561 273.271L103.787 293.582L103.787 293.585Z" fill="#000000" fill-opacity="1.000000" fill-rule="nonzero"/>
	<path id="Vector" d="M287.504 313.295C287.248 313.295 287.011 313.136 286.921 312.879C283.959 304.362 281.244 298.621 278.859 295.815C273.343 289.332 248.907 283.427 208.195 278.733C207.858 278.694 207.612 278.388 207.651 278.051C207.69 277.711 208.003 277.471 208.334 277.507C249.949 282.304 273.996 288.195 279.798 295.015C282.284 297.938 285.074 303.811 288.086 312.472C288.198 312.796 288.028 313.147 287.707 313.258C287.641 313.281 287.571 313.292 287.504 313.292L287.504 313.295Z" fill="#FFFFFF" fill-opacity="1.000000" fill-rule="nonzero"/>
	<path id="Vector" d="M234.618 174.487C232.11 172.653 228.579 173.291 226.873 175.889C218.063 189.316 193.694 226.508 193.407 227.428L205.62 229.151L235.986 181.808C237.536 179.392 236.937 176.184 234.618 174.49L234.618 174.487Z" fill="#FFFFFF" fill-opacity="1.000000" fill-rule="nonzero"/>
	<path id="Vector" d="M205.62 229.766C205.592 229.766 205.561 229.766 205.533 229.761L193.321 228.039C193.143 228.013 192.981 227.91 192.886 227.757C192.789 227.604 192.764 227.417 192.819 227.244C193.101 226.35 211.213 198.639 226.357 175.552C227.274 174.152 228.685 173.219 230.332 172.921C231.979 172.622 233.632 173.001 234.983 173.991C237.561 175.875 238.23 179.453 236.505 182.14L206.138 229.482C206.024 229.661 205.826 229.766 205.62 229.766ZM194.394 226.943L205.313 228.482L235.465 181.471C236.836 179.333 236.304 176.482 234.253 174.983C233.177 174.197 231.862 173.893 230.549 174.13C229.239 174.367 228.119 175.111 227.386 176.223C208.761 204.614 196.743 223.089 194.391 226.938L194.394 226.943Z" fill="#000000" fill-opacity="1.000000" fill-rule="nonzero"/>
	<path id="Vector" d="M68.6045 286.584C68.6045 286.584 55.9209 268.857 61.1133 229.148C66.3081 189.439 79.0137 168.827 92.3105 164.117C105.604 159.407 160.29 168.007 164.56 234.724L68.6045 286.584Z" fill="#FFFFFF" fill-opacity="1.000000" fill-rule="nonzero"/>
	<path id="Vector" d="M68.604 287.203C68.4116 287.203 68.2222 287.111 68.1021 286.944C67.9741 286.765 55.335 268.561 60.502 229.067C65.2397 192.856 76.7583 168.971 92.1035 163.534C99.2104 161.017 117.29 162.285 133.526 172.998C146.72 181.705 162.92 199.472 165.175 234.685C165.192 234.925 165.063 235.154 164.852 235.268L68.8965 287.128C68.8047 287.178 68.7012 287.203 68.604 287.203ZM100.272 163.648C97.0586 163.648 94.3887 164.036 92.5161 164.699C85.7158 167.107 79.3921 173.709 74.2222 183.79C68.3838 195.18 64.1782 210.466 61.7256 229.228C57.0684 264.826 66.9482 282.769 68.8101 285.773L163.918 234.373C161.602 199.929 145.758 182.552 132.846 174.032C121.292 166.407 108.845 163.651 100.272 163.651L100.272 163.648Z" fill="#000000" fill-opacity="1.000000" fill-rule="nonzero"/>
	<path id="Vector" d="M106.816 258.522C106.496 258.522 106.226 258.274 106.2 257.948L103.566 220.709C103.542 220.369 103.798 220.073 104.138 220.048C104.478 220.023 104.773 220.279 104.796 220.619L107.429 257.859C107.455 258.199 107.198 258.494 106.858 258.519C106.844 258.519 106.828 258.519 106.813 258.519L106.816 258.522Z" fill="#000000" fill-opacity="1.000000" fill-rule="nonzero"/>
	<path id="Vector" d="M63.9858 276.373C63.9858 276.373 68.5928 309.721 115.202 298.56C161.809 287.398 186.108 244.072 186.108 244.072C186.108 244.072 213.245 238.272 212.322 220.664C212.322 220.664 203.24 223.1 195.514 220.664C187.789 218.228 179.431 220.72 176.214 223.735C154.178 244.403 83.7847 250.602 63.9858 276.373Z" fill="#FFFFFF" fill-opacity="1.000000" fill-rule="nonzero"/>
	<path id="Vector" d="M97.5938 301.469C88.9204 301.469 81.6328 299.477 75.8105 295.5C65.1089 288.189 63.4424 276.93 63.3755 276.453C63.353 276.289 63.3975 276.125 63.498 275.993C74.3921 261.813 100.191 253.575 125.14 245.607C146.076 238.921 165.852 232.606 175.793 223.281C179.433 219.867 188.078 217.671 195.701 220.073C203.167 222.425 212.074 220.09 212.163 220.065C212.344 220.017 212.534 220.053 212.687 220.162C212.838 220.271 212.93 220.444 212.941 220.63C213.838 237.809 189.53 243.921 186.509 244.612C185.531 246.287 179.425 256.412 168.578 267.557C157.664 278.772 139.568 293.356 115.35 299.156C108.912 300.697 102.986 301.466 97.5967 301.466L97.5938 301.469ZM64.6406 276.534C64.9497 278.223 67.1294 288.086 76.5244 294.493C85.6655 300.725 98.6304 301.89 115.057 297.958C160.872 286.985 185.325 244.2 185.567 243.768C185.654 243.614 185.804 243.503 185.977 243.467C186.239 243.411 211.809 237.742 211.726 221.441C209.359 221.974 201.927 223.331 195.327 221.252C187.724 218.855 179.586 221.416 176.635 224.184C166.49 233.698 146.586 240.055 125.514 246.783C100.871 254.654 75.3955 262.789 64.6377 276.534L64.6406 276.534Z" fill="#000000" fill-opacity="1.000000" fill-rule="nonzero"/>
	<path id="Vector" d="M195.726 228.808C194.974 228.808 194.196 228.791 193.382 228.76C193.042 228.746 192.778 228.459 192.792 228.119C192.806 227.779 193.07 227.515 193.433 227.529C207.033 228.078 211.673 223.574 211.718 223.529C211.958 223.289 212.348 223.287 212.59 223.524C212.833 223.763 212.838 224.151 212.602 224.393C212.415 224.583 208.142 228.81 195.726 228.81L195.726 228.808Z" fill="#000000" fill-opacity="1.000000" fill-rule="nonzero"/>
	<path id="Vector" d="M194.313 235.26C194.012 235.26 193.708 235.26 193.396 235.251C193.056 235.246 192.783 234.964 192.791 234.621C192.797 234.281 193.086 234.011 193.421 234.017C205.277 234.234 209.104 230.031 209.14 229.989C209.365 229.733 209.753 229.705 210.012 229.931C210.268 230.154 210.296 230.544 210.07 230.803C209.909 230.99 206.038 235.262 194.315 235.262L194.313 235.26Z" fill="#000000" fill-opacity="1.000000" fill-rule="nonzero"/>
	<path id="Vector" d="M113.505 133.214C113.154 133.855 98.2466 159.336 98.2466 159.336L87.9653 166.245C91.7583 169.127 98.4585 173.463 107.828 175.949C117.387 178.483 125.503 177.967 130.252 177.309C129.839 176.011 129.146 174.319 127.941 172.552C126.044 169.765 123.781 168.107 122.334 167.221C125.403 161.95 128.471 156.683 131.54 151.413L113.505 133.214Z" fill="#FFFFFF" fill-opacity="1.000000" fill-rule="nonzero"/>
	<path id="Vector" d="M122.384 178.472C117.432 178.472 112.51 177.828 107.669 176.546C100.364 174.609 93.6089 171.309 87.5889 166.739C87.4302 166.619 87.3408 166.429 87.3467 166.229C87.3521 166.031 87.4551 165.844 87.6196 165.736L97.7837 158.905C98.9038 156.99 112.633 133.521 112.964 132.919C113.059 132.749 113.226 132.632 113.418 132.604C113.611 132.576 113.806 132.643 113.942 132.78L131.977 150.979C132.175 151.176 132.211 151.483 132.072 151.723L123.167 167.015C125.271 168.397 127.05 170.142 128.452 172.201C129.48 173.712 130.283 175.365 130.84 177.117C130.896 177.29 130.871 177.48 130.773 177.633C130.675 177.786 130.517 177.89 130.335 177.915C127.682 178.282 125.029 178.466 122.381 178.466L122.384 178.472ZM89.0298 166.273C94.7432 170.479 101.117 173.533 107.987 175.353C115.013 177.215 122.22 177.7 129.427 176.794C128.925 175.415 128.256 174.108 127.434 172.898C126.019 170.816 124.193 169.083 122.014 167.745C121.727 167.569 121.635 167.199 121.805 166.909L130.77 151.511L113.639 134.223C111.242 138.348 99.3359 158.701 98.7812 159.649C98.7339 159.73 98.6699 159.797 98.5918 159.849L89.0327 166.273L89.0298 166.273Z" fill="#000000" fill-opacity="1.000000" fill-rule="nonzero"/>
	<path id="Vector" d="M158.648 116.936C151.775 111.292 143.673 117.184 135.65 110.264C131.974 107.092 131.637 104.099 127.222 102.363C124.298 101.214 119.098 100.423 115.637 103.065C111.228 106.429 114.472 111.671 110.896 123.429C108.385 131.687 104.904 135.279 106.857 138.175C108.833 141.104 113.427 138.967 115.826 142.004C118.931 145.934 113.268 152.085 115.032 157.636C116.244 161.452 122.044 166.9 136.623 168.723C137.428 166.385 139.362 161.756 140.622 157.23C144.565 143.063 142.417 137.643 145.961 135.812C151.394 133.008 157.946 141.667 161.981 139.053C166.173 136.338 165.702 122.727 158.645 116.933L158.648 116.936Z" fill="#000000" fill-opacity="1.000000" fill-rule="nonzero"/>
	<path id="Vector" d="M130.165 123.869L131.539 128.03C131.539 128.03 126.202 141.12 125.246 146.065C124.293 151.009 139.381 155.122 139.381 155.122L141.75 153.366L145.964 154.42C145.964 154.42 145.836 140.011 149.696 130.405C149.696 130.405 142.573 121.762 130.162 123.869L130.165 123.869Z" fill="#FFFFFF" fill-opacity="1.000000" fill-rule="nonzero"/>
	<path id="Vector" d="M130.692 124.187C131.238 125.444 131.723 126.595 132.125 127.838C132.172 127.983 132.164 128.133 132.111 128.264C130.962 131.102 129.859 133.964 128.8 136.837C127.766 139.711 126.715 142.612 125.999 145.527L125.876 146.07C125.829 146.26 125.846 146.369 125.82 146.519C125.846 146.803 125.885 147.093 126.032 147.377C126.294 147.949 126.765 148.484 127.3 148.958C128.384 149.905 129.7 150.661 131.043 151.332C133.747 152.656 136.642 153.69 139.543 154.529L139.014 154.629L141.38 152.873L141.419 152.848C141.564 152.748 141.742 152.726 141.898 152.77L146.065 154.005L145.533 154.426C145.519 152.369 145.594 150.332 145.719 148.289C145.848 146.249 146.04 144.209 146.296 142.177C146.569 140.145 146.912 138.122 147.35 136.112C147.815 134.109 148.381 132.122 149.12 130.179L149.217 130.801C148.105 129.555 146.714 128.418 145.257 127.487C143.793 126.545 142.216 125.776 140.563 125.238C138.917 124.697 137.205 124.315 135.466 124.232C134.6 124.131 133.73 124.19 132.86 124.204C132.381 124.198 132.111 124.276 131.765 124.262C131.434 124.262 131.082 124.218 130.689 124.187L130.692 124.187ZM129.633 123.552C130.126 123.412 130.664 123.265 131.222 123.156C131.765 123.053 132.381 122.958 132.799 122.972C133.719 122.955 134.638 122.897 135.555 123C137.395 123.092 139.215 123.493 140.959 124.067C142.712 124.639 144.382 125.45 145.926 126.447C147.481 127.451 148.896 128.588 150.17 130.015C150.318 130.179 150.352 130.405 150.282 130.597L150.268 130.636C149.529 132.489 148.947 134.415 148.462 136.369C148.002 138.331 147.634 140.318 147.333 142.316C147.049 144.32 146.829 146.332 146.67 148.353C146.514 150.371 146.408 152.402 146.391 154.417C146.391 154.657 146.193 154.852 145.954 154.849C145.92 154.849 145.887 154.844 145.856 154.838L141.598 153.966L142.116 153.863L139.747 155.619L139.739 155.624C139.583 155.738 139.387 155.766 139.215 155.719C136.219 154.852 133.306 153.815 130.491 152.439C129.092 151.736 127.713 150.959 126.481 149.883C125.874 149.339 125.288 148.715 124.903 147.887C124.7 147.483 124.605 147.004 124.583 146.525C124.605 146.296 124.616 146.015 124.664 145.831L124.795 145.251C125.544 142.199 126.598 139.315 127.64 136.414C128.705 133.523 129.812 130.656 130.965 127.799L130.951 128.225C130.436 126.693 130.004 125.068 129.633 123.552Z" fill="#000000" fill-opacity="1.000000" fill-rule="nonzero"/>
	<path id="Vector" d="M125.065 135.43C125.065 135.43 126.386 125.862 121.905 126.183C117.423 126.503 116.236 137.071 125.065 135.43Z" fill="#FFFFFF" fill-opacity="1.000000" fill-rule="nonzero"/>
	<path id="Vector" d="M123.296 136.221C120.974 136.221 119.667 135.263 118.948 134.354C117.527 132.559 117.652 130.034 118.405 128.323C119.121 126.698 120.414 125.667 121.863 125.564C122.85 125.494 123.675 125.809 124.321 126.503C126.562 128.897 125.715 135.243 125.679 135.513C125.643 135.778 125.442 135.987 125.18 136.035C124.489 136.163 123.864 136.221 123.298 136.221L123.296 136.221ZM122.12 126.79C122.064 126.79 122.008 126.79 121.95 126.796C120.949 126.868 120.068 127.604 119.533 128.819C118.929 130.19 118.814 132.194 119.915 133.585C120.832 134.742 122.412 135.19 124.508 134.892C124.714 132.947 124.826 128.844 123.418 127.342C123.07 126.969 122.644 126.785 122.12 126.785L122.12 126.79Z" fill="#000000" fill-opacity="1.000000" fill-rule="nonzero"/>
	<path id="Vector" d="M158.535 405.859C155.539 399.694 155.254 393.485 158.535 387.208L156.18 384.385L91.7837 386.503L94.002 406.96L156.335 407.679L158.532 405.859L158.535 405.859Z" fill="#FFFFFF" fill-opacity="1.000000" fill-rule="nonzero"/>
	<path id="Vector" d="M156.337 408.295L156.329 408.295L93.9956 407.576C93.6836 407.573 93.4243 407.336 93.3882 407.024L91.1699 386.567C91.1504 386.397 91.2061 386.225 91.3174 386.096C91.4292 385.965 91.5908 385.89 91.7637 385.885L156.159 383.766C156.346 383.761 156.533 383.842 156.652 383.99L159.007 386.813C159.167 387.005 159.197 387.273 159.08 387.493C156.017 393.351 156.02 399.27 159.088 405.586C159.214 405.842 159.147 406.149 158.927 406.33L156.73 408.15C156.619 408.242 156.479 408.292 156.337 408.292L156.337 408.295ZM94.5586 406.349L156.117 407.06L157.77 405.692C154.835 399.376 154.844 393.189 157.798 387.292L155.897 385.012L92.4688 387.1L94.5586 406.349Z" fill="#000000" fill-opacity="1.000000" fill-rule="nonzero"/>
	<path id="Vector" d="M40.2075 382.133L159.727 382.133C161.123 382.133 162.257 383.265 162.257 384.664C162.257 386.063 161.126 387.194 159.727 387.194L104.779 387.194C100.754 387.194 97.4937 390.455 97.4937 394.48L97.4937 398.576C97.4937 402.601 100.754 405.862 104.779 405.862L159.727 405.862C161.123 405.862 162.257 406.993 162.257 408.392C162.257 409.791 161.126 410.923 159.727 410.923L40.2075 410.923C32.7886 410.923 26.7744 404.908 26.7744 397.49L26.7744 395.572C26.7744 388.153 32.7886 382.139 40.2075 382.139L40.2075 382.133Z" fill="#FFFFFF" fill-opacity="1.000000" fill-rule="nonzero"/>
	<path id="Vector" d="M159.73 411.535L40.208 411.535C32.46 411.535 26.1587 405.231 26.1587 397.486L26.1587 395.569C26.1587 387.821 32.4629 381.52 40.208 381.52L159.727 381.52C161.463 381.52 162.874 382.933 162.874 384.666C162.874 386.4 161.46 387.813 159.727 387.813L104.779 387.813C101.103 387.813 98.1099 390.803 98.1099 394.482L98.1099 398.579C98.1099 402.255 101.1 405.248 104.779 405.248L159.727 405.248C161.463 405.248 162.874 406.661 162.874 408.394C162.874 410.128 161.46 411.541 159.727 411.541L159.73 411.535ZM40.2104 382.752C33.1431 382.752 27.396 388.501 27.396 395.569L27.396 397.486C27.396 404.554 33.1455 410.303 40.2104 410.303L159.73 410.303C160.783 410.303 161.642 409.445 161.642 408.392C161.642 407.338 160.783 406.48 159.73 406.48L104.782 406.48C100.423 406.48 96.8779 402.935 96.8779 398.576L96.8779 394.479C96.8779 390.12 100.423 386.575 104.782 386.575L159.73 386.575C160.783 386.575 161.642 385.717 161.642 384.663C161.642 383.61 160.783 382.752 159.73 382.752L40.208 382.752L40.2104 382.752Z" fill="#000000" fill-opacity="1.000000" fill-rule="nonzero"/>
	<path id="Vector" d="M156.176 396.283L119.909 396.283C119.569 396.283 119.293 396.007 119.293 395.667C119.293 395.327 119.569 395.051 119.909 395.051L156.176 395.051C156.516 395.051 156.792 395.327 156.792 395.667C156.792 396.007 156.516 396.283 156.176 396.283Z" fill="#000000" fill-opacity="1.000000" fill-rule="nonzero"/>
	<path id="Vector" d="M156.405 401.742L126.93 401.742C126.59 401.742 126.314 401.466 126.314 401.126C126.314 400.786 126.59 400.51 126.93 400.51L156.405 400.51C156.745 400.51 157.021 400.786 157.021 401.126C157.021 401.466 156.745 401.742 156.405 401.742Z" fill="#000000" fill-opacity="1.000000" fill-rule="nonzero"/>
	<path id="Vector" d="M163.166 440.662L55.207 440.662L55.207 414.214L163.163 414.214C159.975 423.149 159.889 431.967 163.163 440.662L163.166 440.662Z" fill="#FFFFFF" fill-opacity="1.000000" fill-rule="nonzero"/>
	<path id="Vector" d="M163.166 441.278L55.2065 441.278C54.8667 441.278 54.5908 441.002 54.5908 440.662L54.5908 414.214C54.5908 413.874 54.8667 413.598 55.2065 413.598L163.166 413.598C163.366 413.598 163.553 413.696 163.67 413.86C163.784 414.025 163.815 414.234 163.748 414.423C160.585 423.294 160.582 432.051 163.745 440.448C163.818 440.637 163.79 440.849 163.676 441.016C163.562 441.184 163.372 441.281 163.168 441.281L163.166 441.278ZM55.8257 440.044L162.285 440.044C159.417 431.883 159.42 423.408 162.299 414.83L55.8257 414.83L55.8257 440.044Z" fill="#000000" fill-opacity="1.000000" fill-rule="nonzero"/>
	<path id="Vector" d="M68.2061 415.519L163.911 415.519C165.062 415.519 165.995 414.585 165.995 413.434C165.995 412.283 165.062 411.349 163.911 411.349L39.7178 411.349C34.6592 411.349 30.5596 415.449 30.5596 420.507L30.5596 434.905C30.5596 439.963 34.6592 444.063 39.7178 444.063L163.908 444.063C165.059 444.063 165.992 443.129 165.992 441.978C165.992 440.827 165.059 439.894 163.908 439.894L68.2061 439.894C64.6333 439.894 61.7373 436.998 61.7373 433.425L61.7373 421.987C61.7373 418.414 64.6333 415.519 68.2061 415.519Z" fill="#FFFFFF" fill-opacity="1.000000" fill-rule="nonzero"/>
	<path id="Vector" d="M163.907 444.679L39.7173 444.679C34.3271 444.679 29.9434 440.295 29.9434 434.905L29.9434 420.507C29.9434 415.117 34.3271 410.733 39.7173 410.733L163.907 410.733C165.396 410.733 166.608 411.946 166.608 413.434C166.608 414.922 165.396 416.135 163.907 416.135L68.2056 416.135C64.9785 416.135 62.353 418.76 62.353 421.987L62.353 433.425C62.353 436.652 64.9785 439.278 68.2056 439.278L163.91 439.278C165.398 439.278 166.611 440.49 166.611 441.978C166.611 443.466 165.398 444.679 163.91 444.679L163.907 444.679ZM39.7173 411.965C35.0073 411.965 31.1753 415.797 31.1753 420.507L31.1753 434.905C31.1753 439.615 35.0073 443.447 39.7173 443.447L163.907 443.447C164.716 443.447 165.374 442.789 165.374 441.981C165.374 441.173 164.716 440.515 163.907 440.515L68.2056 440.515C64.2983 440.515 61.1187 437.335 61.1187 433.428L61.1187 421.99C61.1187 418.083 64.2983 414.903 68.2056 414.903L163.91 414.903C164.718 414.903 165.376 414.245 165.376 413.437C165.376 412.629 164.718 411.971 163.91 411.971L39.7173 411.971L39.7173 411.965Z" fill="#000000" fill-opacity="1.000000" fill-rule="nonzero"/>
	<path id="Vector" d="M161.257 421.109L145.315 421.109C144.976 421.109 144.7 420.833 144.7 420.494C144.7 420.154 144.976 419.878 145.315 419.878L161.257 419.878C161.597 419.878 161.873 420.154 161.873 420.494C161.873 420.833 161.597 421.109 161.257 421.109Z" fill="#000000" fill-opacity="1.000000" fill-rule="nonzero"/>
	<path id="Vector" d="M160.92 424.64L111.824 424.64C111.484 424.64 111.208 424.364 111.208 424.024C111.208 423.684 111.484 423.408 111.824 423.408L160.92 423.408C161.26 423.408 161.536 423.684 161.536 424.024C161.536 424.364 161.26 424.64 160.92 424.64Z" fill="#000000" fill-opacity="1.000000" fill-rule="nonzero"/>
	<path id="Vector" d="M160.92 432.009L118.678 432.009C118.338 432.009 118.062 431.733 118.062 431.393C118.062 431.053 118.338 430.777 118.678 430.777L160.92 430.777C161.26 430.777 161.536 431.053 161.536 431.393C161.536 431.733 161.26 432.009 160.92 432.009Z" fill="#000000" fill-opacity="1.000000" fill-rule="nonzero"/>
	<path id="Vector" d="M30.9854 471.057C34.3687 464.093 34.6919 457.072 30.9854 449.982L33.647 446.791L106.412 449.185L103.904 472.3L33.4688 473.111L30.9854 471.057Z" fill="#FFFFFF" fill-opacity="1.000000" fill-rule="nonzero"/>
	<path id="Vector" d="M33.4658 473.73C33.3208 473.73 33.1816 473.68 33.0728 473.588L30.5898 471.534C30.3696 471.353 30.3027 471.043 30.4282 470.79C33.9087 463.627 33.9087 456.916 30.4365 450.272C30.3223 450.052 30.3501 449.781 30.5088 449.592L33.1704 446.401C33.293 446.256 33.4771 446.175 33.6636 446.178L106.429 448.572C106.602 448.577 106.763 448.656 106.875 448.784C106.986 448.915 107.042 449.085 107.022 449.255L104.514 472.37C104.48 472.679 104.219 472.916 103.906 472.922L33.4712 473.733L33.4629 473.733L33.4658 473.73ZM31.749 470.89L33.686 472.495L103.349 471.693L105.727 449.784L33.9258 447.424L31.7212 450.068C35.0796 456.74 35.0908 463.741 31.749 470.893L31.749 470.89Z" fill="#000000" fill-opacity="1.000000" fill-rule="nonzero"/>
	<path id="Vector" d="M164.69 444.247L29.6338 444.247C28.0566 444.247 26.7744 445.526 26.7744 447.106C26.7744 448.686 28.0537 449.965 29.6338 449.965L91.7246 449.965C96.2705 449.965 99.9575 453.653 99.9575 458.198L99.9575 462.827C99.9575 467.373 96.2705 471.06 91.7246 471.06L29.6338 471.06C28.0566 471.06 26.7744 472.339 26.7744 473.919C26.7744 475.5 28.0537 476.779 29.6338 476.779L164.69 476.779C173.074 476.779 179.871 469.981 179.871 461.598L179.871 459.43C179.871 451.047 173.074 444.249 164.69 444.249L164.69 444.247Z" fill="#FFFFFF" fill-opacity="1.000000" fill-rule="nonzero"/>
	<path id="Vector" d="M164.69 477.392L29.6343 477.392C27.7168 477.392 26.1587 475.834 26.1587 473.917C26.1587 471.999 27.7168 470.441 29.6343 470.441L91.7251 470.441C95.9248 470.441 99.3389 467.024 99.3389 462.827L99.3389 458.198C99.3389 453.998 95.9224 450.584 91.7251 450.584L29.6343 450.584C27.7168 450.584 26.1587 449.026 26.1587 447.109C26.1587 445.191 27.7168 443.633 29.6343 443.633L164.69 443.633C173.4 443.633 180.487 450.721 180.487 459.43L180.487 461.598C180.487 470.307 173.4 477.395 164.69 477.395L164.69 477.392ZM29.6343 471.676C28.3994 471.676 27.3936 472.682 27.3936 473.917C27.3936 475.151 28.3994 476.157 29.6343 476.157L164.69 476.157C172.72 476.157 179.252 469.625 179.252 461.595L179.252 459.427C179.252 451.398 172.72 444.865 164.69 444.865L29.6343 444.865C28.3994 444.865 27.3936 445.871 27.3936 447.106C27.3936 448.34 28.3994 449.347 29.6343 449.347L91.7251 449.347C96.605 449.347 100.574 453.315 100.574 458.195L100.574 462.824C100.574 467.704 96.605 471.673 91.7251 471.673L29.6343 471.673L29.6343 471.676Z" fill="#000000" fill-opacity="1.000000" fill-rule="nonzero"/>
	<path id="Vector" d="M66.957 460.155L33.647 460.155C33.3071 460.155 33.0312 459.879 33.0312 459.539C33.0312 459.199 33.3071 458.923 33.647 458.923L66.957 458.923C67.2969 458.923 67.5728 459.199 67.5728 459.539C67.5728 459.879 67.2969 460.155 66.957 460.155Z" fill="#000000" fill-opacity="1.000000" fill-rule="nonzero"/>
	<path id="Vector" d="M74.1055 466.328L33.3906 466.328C33.0508 466.328 32.7749 466.052 32.7749 465.712C32.7749 465.372 33.0508 465.096 33.3906 465.096L74.1055 465.096C74.4458 465.096 74.7217 465.372 74.7217 465.712C74.7217 466.052 74.4458 466.328 74.1055 466.328Z" fill="#000000" fill-opacity="1.000000" fill-rule="nonzero"/>
	<path id="Vector" d="M372.069 348.594C378.404 352.658 420.069 377.161 469.986 353.46C470.167 353.374 470.312 353.235 470.399 353.053C472.325 349.076 493.57 302.325 463.002 235.546C462.766 235.025 462.105 234.855 461.659 235.204C456.057 239.588 424.45 263.405 399.378 262.792C398.788 262.778 398.347 263.319 398.503 263.893C400.31 270.503 407.291 304.864 371.871 347.284C371.531 347.691 371.62 348.305 372.069 348.594Z" fill="#FFFFFF" fill-opacity="1.000000" fill-rule="nonzero"/>
	<path id="Vector" d="M425.877 364.296C418.818 364.296 411.706 363.546 404.557 362.041C387.068 358.362 375.012 351.214 371.734 349.112C371.375 348.881 371.13 348.505 371.066 348.081C370.999 347.655 371.122 347.22 371.397 346.888C406.644 304.674 399.666 270.481 397.907 264.054C397.782 263.594 397.876 263.12 398.169 262.747C398.464 262.371 398.916 262.162 399.393 262.173C424.168 262.789 455.285 239.409 461.277 234.715C461.637 234.434 462.097 234.336 462.542 234.445C462.997 234.557 463.367 234.863 463.562 235.287C476.396 263.324 481.756 291.118 479.499 317.901C477.773 338.374 472.077 350.999 470.954 353.321C470.806 353.627 470.563 353.867 470.251 354.017C455.834 360.862 440.979 364.296 425.88 364.296L425.877 364.296ZM399.354 263.407C399.236 263.407 399.169 263.471 399.139 263.508C399.105 263.552 399.069 263.625 399.097 263.728C400.884 270.258 407.985 304.995 372.342 347.68C372.272 347.761 372.275 347.85 372.281 347.894C372.287 347.939 372.312 348.02 372.398 348.073C375.631 350.146 387.523 357.197 404.808 360.831C426.97 365.494 448.808 362.827 469.716 352.9C469.772 352.872 469.813 352.833 469.839 352.783C470.945 350.495 476.558 338.054 478.267 317.795C480.507 291.227 475.182 263.639 462.439 235.8C462.389 235.688 462.292 235.652 462.252 235.643C462.208 235.632 462.122 235.624 462.041 235.688C456.068 240.365 425.339 263.416 400.34 263.418C400.011 263.418 399.691 263.416 399.365 263.407C399.365 263.407 399.359 263.407 399.356 263.407L399.354 263.407Z" fill="#000000" fill-opacity="1.000000" fill-rule="nonzero"/>
	<path id="Vector" d="M408.656 274.327C408.369 274.327 408.113 274.126 408.054 273.836C407.984 273.502 408.196 273.176 408.531 273.106C408.798 273.051 435.573 267.307 455.07 252.839C455.344 252.636 455.731 252.695 455.935 252.968C456.138 253.241 456.079 253.628 455.806 253.832C436.088 268.466 409.058 274.26 408.785 274.316C408.743 274.324 408.698 274.33 408.656 274.33L408.656 274.327Z" fill="#000000" fill-opacity="1.000000" fill-rule="nonzero"/>
	<path id="Vector" d="M427.917 281.289C427.635 281.289 427.381 281.094 427.314 280.809C427.239 280.478 427.448 280.146 427.78 280.071C440.528 277.175 451.731 272.454 461.079 266.038C461.36 265.846 461.745 265.916 461.937 266.197C462.129 266.479 462.057 266.863 461.778 267.056C452.303 273.56 440.954 278.343 428.053 281.275C428.006 281.286 427.961 281.292 427.917 281.292L427.917 281.289Z" fill="#000000" fill-opacity="1.000000" fill-rule="nonzero"/>
	<path id="Vector" d="M408.422 283.965C408.085 283.965 407.809 283.694 407.806 283.354C407.801 283.014 408.074 282.733 408.414 282.73C408.456 282.73 412.547 282.663 418.801 281.749C419.141 281.702 419.45 281.933 419.5 282.27C419.55 282.607 419.316 282.922 418.979 282.97C412.636 283.898 408.472 283.965 408.431 283.965L408.422 283.965Z" fill="#000000" fill-opacity="1.000000" fill-rule="nonzero"/>
	<path id="Vector" d="M414.35 294.672C410.236 294.672 407.84 294.402 407.759 294.391C407.422 294.349 407.179 294.042 407.221 293.705C407.263 293.368 407.566 293.125 407.907 293.167C408.166 293.198 434.277 296.13 463.526 282.053C463.833 281.905 464.204 282.033 464.351 282.342C464.499 282.649 464.371 283.02 464.064 283.167C443.282 293.17 424.051 294.675 414.35 294.675L414.35 294.672Z" fill="#000000" fill-opacity="1.000000" fill-rule="nonzero"/>
	<path id="Vector" d="M422.324 305.873C411.753 305.873 405.137 304.437 405.003 304.407C404.671 304.331 404.462 304.003 404.537 303.668C404.613 303.336 404.941 303.127 405.276 303.203C405.549 303.264 432.853 309.17 465.575 296.595C465.893 296.472 466.249 296.631 466.372 296.949C466.495 297.266 466.335 297.623 466.018 297.746C449.031 304.273 433.48 305.87 422.327 305.87L422.324 305.873Z" fill="#000000" fill-opacity="1.000000" fill-rule="nonzero"/>
	<path id="Vector" d="M446.564 318.754C446.261 318.754 445.999 318.531 445.954 318.222C445.907 317.885 446.141 317.573 446.479 317.525C453.058 316.6 459.326 314.975 465.109 312.704C465.427 312.578 465.784 312.734 465.909 313.052C466.035 313.37 465.878 313.727 465.561 313.852C459.688 316.16 453.326 317.81 446.651 318.749C446.623 318.752 446.593 318.754 446.564 318.754Z" fill="#000000" fill-opacity="1.000000" fill-rule="nonzero"/>
	<path id="Vector" d="M432.73 319.699C415.223 319.699 401.831 315.393 401.692 315.346C401.369 315.24 401.19 314.892 401.296 314.569C401.402 314.245 401.753 314.07 402.074 314.173C402.219 314.22 416.939 318.947 435.643 318.423C436 318.415 436.267 318.682 436.278 319.022C436.287 319.362 436.019 319.646 435.679 319.658C434.684 319.685 433.7 319.699 432.73 319.699Z" fill="#000000" fill-opacity="1.000000" fill-rule="nonzero"/>
	<path id="Vector" d="M19.0068 95.8497L43.5493 119.564C45.812 121.749 49.4326 121.663 51.5698 119.355C58.9775 111.368 76.5747 94.1497 98.625 84.465C101.808 83.0687 102.99 79.1642 101.094 76.2489L79.2612 42.691C77.6226 40.1716 74.2949 39.3773 71.7061 40.9019C63.4482 45.7706 44.7891 58.6854 18.7031 88.0713C16.7051 90.3231 16.8413 93.7567 19.0044 95.8469L19.0068 95.8497Z" fill="#FFFFFF" fill-opacity="1.000000" fill-rule="nonzero"/>
	<path id="Vector" d="M47.4565 121.763C45.8291 121.763 44.2964 121.144 43.1201 120.007L18.5781 96.2927C16.1646 93.9601 16.0166 90.1698 18.2437 87.6643C44.1011 58.5376 62.6431 45.5337 71.394 40.3722C74.27 38.6777 77.9517 39.5472 79.7798 42.3564L101.613 75.9144C102.611 77.4501 102.884 79.3368 102.36 81.0898C101.833 82.854 100.562 84.2893 98.8735 85.0306C76.5942 94.8157 58.688 112.588 52.0215 119.776C50.8765 121.01 49.3184 121.715 47.6323 121.763C47.5737 121.763 47.5151 121.763 47.4565 121.763ZM19.4365 95.4037L43.9785 119.118C44.9565 120.063 46.2388 120.559 47.5986 120.525C48.9507 120.489 50.1992 119.923 51.1157 118.934C57.8325 111.691 75.8838 93.7761 98.3774 83.899C99.7349 83.3026 100.755 82.1516 101.175 80.7358C101.596 79.3313 101.376 77.8179 100.576 76.5861L78.7432 43.0282C77.2773 40.7762 74.3257 40.0768 72.021 41.434C63.334 46.5565 44.9121 59.4796 19.1689 88.4808C17.3823 90.4902 17.5024 93.5337 19.4395 95.4037L19.4365 95.4037Z" fill="#000000" fill-opacity="1.000000" fill-rule="nonzero"/>
	<path id="Vector" d="M2.55273 126.786L27.0952 150.5C29.3579 152.685 32.9785 152.599 35.1157 150.291C42.5234 142.304 60.1206 125.086 82.1709 115.401C85.354 114.005 86.5356 110.1 84.6401 107.185L62.8071 73.6271C61.1685 71.1077 57.8408 70.3134 55.252 71.8379C46.9941 76.7067 28.335 89.6215 2.24902 119.007C0.250977 121.259 0.387207 124.693 2.55029 126.783L2.55273 126.786Z" fill="#FFFFFF" fill-opacity="1.000000" fill-rule="nonzero"/>
	<path id="Vector" d="M31.0024 152.701C29.375 152.701 27.8423 152.082 26.666 150.945L2.12695 127.228C-0.286621 124.895 -0.43457 121.105 1.79248 118.599C27.6499 89.4701 46.1919 76.4661 54.9429 71.3074C57.8188 69.6129 61.5005 70.4824 63.3286 73.2916L85.1621 106.85C86.1597 108.385 86.4326 110.272 85.9087 112.025C85.3818 113.789 84.1113 115.224 82.4224 115.966C60.1431 125.751 42.2368 143.523 35.5703 150.711C34.4253 151.946 32.8672 152.651 31.1812 152.698C31.1226 152.698 31.064 152.698 31.0054 152.698L31.0024 152.701ZM2.98242 126.342L27.5244 150.056C28.5029 151.001 29.7847 151.497 31.1475 151.463C32.4995 151.427 33.748 150.861 34.6646 149.872C41.3813 142.629 59.4326 124.714 81.9263 114.837C83.2837 114.241 84.3037 113.087 84.7271 111.674C85.1479 110.269 84.9277 108.756 84.1279 107.524L62.2949 73.9661C60.8286 71.7142 57.8774 71.0148 55.5698 72.3719C46.8828 77.4944 28.4609 90.4176 2.71777 119.419C0.931152 121.428 1.05127 124.469 2.98828 126.342L2.98242 126.342Z" fill="#000000" fill-opacity="1.000000" fill-rule="nonzero"/>
	<path id="Vector" d="M7.73145 124.698C7.43066 124.698 7.16846 124.478 7.12109 124.174C7.0708 123.837 7.30225 123.522 7.63965 123.472L37.8169 118.915C43.1455 118.11 47.5044 114.459 49.1958 109.386L59.2236 79.2955C59.332 78.9723 59.6807 78.7966 60.0039 78.9054C60.3271 79.014 60.5029 79.3624 60.394 79.6857L50.3667 109.777C48.5273 115.292 43.7891 119.264 38.0005 120.136L7.82324 124.693C7.79297 124.698 7.76221 124.701 7.73145 124.701L7.73145 124.698Z" fill="#000000" fill-opacity="1.000000" fill-rule="nonzero"/>
	<path id="Vector" d="M453.816 364.09L413.639 340.822C411.998 339.871 409.807 340.378 408.745 341.959L358.292 417.081C357.234 418.662 357.705 420.71 359.346 421.663L399.523 444.932C401.165 445.882 403.355 445.375 404.417 443.795L454.87 368.672C455.929 367.092 455.458 365.043 453.816 364.09Z" fill="#FFFFFF" fill-opacity="1.000000" fill-rule="nonzero"/>
	<path id="Vector" d="M401.321 446.021C400.596 446.021 399.866 445.84 399.214 445.464L359.037 422.195C358.095 421.649 357.443 420.78 357.206 419.749C356.966 418.715 357.169 417.644 357.78 416.736L408.232 341.613C409.47 339.774 412.031 339.177 413.949 340.286L454.125 363.555C455.067 364.101 455.72 364.971 455.957 366.002C456.196 367.036 455.993 368.106 455.382 369.014L404.93 444.137C404.116 445.35 402.723 446.021 401.321 446.021ZM411.831 340.958C410.833 340.958 409.841 341.437 409.258 342.301L358.806 417.424C358.388 418.046 358.248 418.773 358.41 419.47C358.571 420.167 359.015 420.755 359.658 421.125L399.835 444.394C401.201 445.185 403.026 444.759 403.907 443.446L454.36 368.323C454.778 367.702 454.917 366.974 454.755 366.278C454.594 365.581 454.151 364.993 453.51 364.622L413.333 341.354C412.867 341.083 412.349 340.955 411.833 340.955L411.831 340.958Z" fill="#000000" fill-opacity="1.000000" fill-rule="nonzero"/>
	<path id="Vector" d="M422.075 345.707L421 347.31C419.854 349.012 420.364 351.225 422.137 352.251L439.025 362.033C440.798 363.059 443.162 362.51 444.304 360.807L445.38 359.204L422.072 345.707L422.075 345.707Z" fill="#000000" fill-opacity="1.000000" fill-rule="nonzero"/>
	<path id="Vector" d="M431.551 355.695C430.908 355.322 430.724 354.519 431.139 353.898C431.554 353.279 432.416 353.078 433.059 353.452C433.703 353.825 433.887 354.628 433.472 355.249C433.057 355.868 432.195 356.069 431.551 355.695Z" fill="#FFFFFF" fill-opacity="1.000000" fill-rule="nonzero"/>
	<path id="Vector" d="M444.566 375.516L406.658 353.561L408.876 350.258L446.785 372.211L444.566 375.516Z" fill="#000000" fill-opacity="1.000000" fill-rule="nonzero"/>
	<path id="Vector" d="M428.185 400.524C428.079 400.524 427.973 400.496 427.875 400.44L389.967 378.488C389.819 378.401 389.713 378.259 389.674 378.092C389.635 377.925 389.668 377.749 389.763 377.61L404.523 355.632C404.704 355.361 405.064 355.278 405.345 355.442L443.254 377.395C443.401 377.481 443.507 377.624 443.546 377.791C443.585 377.958 443.552 378.134 443.457 378.273L428.697 400.251C428.58 400.427 428.385 400.524 428.185 400.524ZM391.157 377.749L427.995 399.083L442.066 378.131L405.229 356.797L391.157 377.749Z" fill="#000000" fill-opacity="1.000000" fill-rule="nonzero"/>
	<path id="Vector" d="M444.095 372.949C443.8 373.39 443.192 373.529 442.735 373.264C442.278 373 442.147 372.428 442.442 371.991C442.738 371.55 443.346 371.411 443.803 371.676C444.26 371.941 444.391 372.512 444.095 372.949Z" fill="#FFFFFF" fill-opacity="1.000000" fill-rule="nonzero"/>
	<path id="Vector" d="M417.965 415.738C417.859 415.738 417.753 415.71 417.655 415.654L379.747 393.701C379.599 393.615 379.494 393.473 379.455 393.305C379.416 393.138 379.449 392.963 379.543 392.823L388.746 379.123C388.927 378.852 389.287 378.769 389.568 378.933L427.477 400.886C427.625 400.972 427.73 401.115 427.77 401.282C427.809 401.449 427.775 401.625 427.68 401.764L418.478 415.465C418.36 415.64 418.166 415.738 417.965 415.738ZM380.937 392.963L417.775 414.297L426.287 401.622L389.449 380.288L380.937 392.963Z" fill="#000000" fill-opacity="1.000000" fill-rule="nonzero"/>
	<path id="Vector" d="M407.419 431.443C407.313 431.443 407.207 431.415 407.109 431.359L369.201 409.406C369.054 409.32 368.948 409.178 368.909 409.01C368.87 408.843 368.903 408.668 368.998 408.528L378.2 394.827C378.381 394.557 378.741 394.474 379.022 394.638L416.931 416.591C417.079 416.677 417.185 416.819 417.224 416.987C417.263 417.154 417.229 417.33 417.134 417.469L407.932 431.17C407.814 431.345 407.62 431.443 407.419 431.443ZM370.391 408.668L407.229 430.002L415.741 417.327L378.903 395.992L370.391 408.668Z" fill="#000000" fill-opacity="1.000000" fill-rule="nonzero"/>
	<path id="Vector" d="M399.989 442.507C399.883 442.507 399.777 442.479 399.679 442.423L361.771 420.47C361.623 420.384 361.518 420.242 361.479 420.075C361.439 419.907 361.473 419.732 361.567 419.593L367.654 410.529C367.835 410.259 368.195 410.175 368.477 410.34L406.385 432.293C406.533 432.379 406.639 432.521 406.677 432.688C406.716 432.856 406.683 433.031 406.588 433.171L400.501 442.234C400.384 442.409 400.189 442.507 399.989 442.507ZM362.961 419.732L399.799 441.066L405.198 433.029L368.359 411.694L362.961 419.732Z" fill="#000000" fill-opacity="1.000000" fill-rule="nonzero"/>
	<path id="Vector" d="M384.474 166.218C384.398 166.218 384.32 166.204 384.245 166.173C381.887 165.229 379.309 163.682 379.201 163.618C378.908 163.442 378.813 163.063 378.992 162.77C379.167 162.478 379.546 162.383 379.839 162.561C379.864 162.578 382.439 164.122 384.705 165.028C385.022 165.153 385.176 165.513 385.048 165.831C384.95 166.073 384.719 166.218 384.474 166.218Z" fill="#000000" fill-opacity="1.000000" fill-rule="nonzero"/>
	<path id="Vector" d="M408.051 202.145L417.438 207.513C418.215 207.958 419.208 207.683 419.651 206.899L448.649 155.806C449.145 154.934 448.844 153.824 447.978 153.328L424.19 139.725L408.054 202.145L408.051 202.145Z" fill="#FFFFFF" fill-opacity="1.000000" fill-rule="nonzero"/>
	<path id="Vector" d="M408.052 202.145L417.438 207.513C417.896 207.775 418.425 207.786 418.874 207.596C418.874 207.596 419.626 207.253 420.459 205.79C421.176 204.531 448.438 156.177 448.438 156.177C449.037 155.118 448.736 154.011 447.87 153.515L424.083 139.912L408.049 202.145L408.052 202.145Z" fill="#FFFFFF" fill-opacity="1.000000" fill-rule="nonzero"/>
	<path id="Vector" d="M418.232 208.343C417.851 208.343 417.475 208.242 417.132 208.047L407.745 202.679C407.45 202.509 407.347 202.133 407.517 201.838C407.687 201.542 408.063 201.439 408.358 201.609L417.745 206.977C418.018 207.133 418.338 207.153 418.631 207.027C418.631 207.027 419.233 206.695 419.924 205.483C420.632 204.24 447.629 156.357 447.902 155.872C448.315 155.148 448.176 154.398 447.565 154.05L423.778 140.446C423.483 140.276 423.38 139.9 423.55 139.605C423.72 139.309 424.096 139.206 424.392 139.376L448.178 152.979C449.377 153.665 449.72 155.17 448.976 156.483C448.703 156.965 421.705 204.85 420.997 206.096C420.088 207.688 419.225 208.114 419.13 208.159C418.837 208.284 418.534 208.345 418.235 208.345L418.232 208.343Z" fill="#000000" fill-opacity="1.000000" fill-rule="nonzero"/>
	<path id="Vector" d="M434.19 172.162L406.368 204.402C405.978 204.856 405.323 204.971 404.804 204.672L349.954 173.305C349.271 172.915 349.115 171.992 349.631 171.393L391.82 122.51C392.21 122.055 392.865 121.941 393.383 122.239L448.234 153.607C448.917 153.997 449.073 154.919 448.557 155.518L437 168.929L434.193 172.162L434.19 172.162Z" fill="#FFFFFF" fill-opacity="1.000000" fill-rule="nonzero"/>
	<path id="Vector" d="M405.417 205.453C405.103 205.453 404.785 205.372 404.498 205.208L349.647 173.84C349.163 173.561 348.831 173.088 348.733 172.533C348.639 171.978 348.794 171.415 349.16 170.989L391.349 122.106C391.931 121.428 392.912 121.261 393.684 121.701L448.535 153.069C449.02 153.348 449.351 153.821 449.449 154.376C449.543 154.931 449.387 155.494 449.022 155.92L437.465 169.331C437.242 169.59 436.852 169.618 436.595 169.395C436.336 169.172 436.308 168.782 436.531 168.525L448.089 155.115C448.214 154.97 448.267 154.774 448.233 154.585C448.214 154.473 448.15 154.27 447.924 154.142L393.074 122.774C392.815 122.627 392.483 122.682 392.285 122.914L350.096 171.797C349.971 171.942 349.917 172.135 349.951 172.327C349.971 172.438 350.035 172.642 350.26 172.77L405.111 204.137C405.37 204.285 405.702 204.227 405.899 203.998L433.725 171.758C433.948 171.499 434.338 171.471 434.594 171.694C434.854 171.917 434.881 172.307 434.658 172.564L406.836 204.803C406.471 205.227 405.95 205.453 405.42 205.453L405.417 205.453Z" fill="#000000" fill-opacity="1.000000" fill-rule="nonzero"/>
	<path id="Vector" d="M396.093 200.746C396.033 200.757 395.978 200.768 395.922 200.779L396.093 200.746Z" fill="#000000" fill-opacity="1.000000" fill-rule="nonzero"/>
	<path id="Vector" d="M382.896 139.959L393.35 145.94L385.803 154.683L375.349 148.705L382.896 139.959Z" fill="#FFFFFF" fill-opacity="1.000000" fill-rule="nonzero"/>
	<path id="Vector" d="M385.803 155.301C385.697 155.301 385.594 155.274 385.497 155.221L375.042 149.242C374.884 149.151 374.772 148.992 374.742 148.811C374.711 148.629 374.761 148.443 374.884 148.303L382.431 139.558C382.623 139.335 382.949 139.279 383.206 139.424L393.66 145.402C393.818 145.494 393.93 145.653 393.96 145.834C393.991 146.015 393.941 146.202 393.818 146.341L386.271 155.087C386.151 155.226 385.979 155.301 385.803 155.301ZM376.305 148.543L385.669 153.897L392.395 146.104L383.03 140.751L376.305 148.543Z" fill="#000000" fill-opacity="1.000000" fill-rule="nonzero"/>
	<path id="Vector" d="M373.688 150.594L384.142 156.575L376.595 165.318L366.138 159.34L373.688 150.594Z" fill="#FFFFFF" fill-opacity="1.000000" fill-rule="nonzero"/>
	<path id="Vector" d="M376.595 165.936C376.489 165.936 376.386 165.908 376.289 165.856L365.834 159.877C365.676 159.786 365.564 159.627 365.534 159.445C365.503 159.264 365.553 159.078 365.676 158.938L373.223 150.193C373.415 149.97 373.738 149.914 373.998 150.059L384.452 156.037C384.61 156.129 384.722 156.288 384.752 156.469C384.783 156.65 384.733 156.837 384.61 156.976L377.063 165.722C376.943 165.861 376.771 165.936 376.595 165.936ZM367.097 159.175L376.461 164.529L383.187 156.737L373.822 151.383L367.097 159.175Z" fill="#000000" fill-opacity="1.000000" fill-rule="nonzero"/>
	<path id="Vector" d="M395.471 147.152L405.928 153.13L398.378 161.876L387.924 155.898L395.471 147.152Z" fill="#FFFFFF" fill-opacity="1.000000" fill-rule="nonzero"/>
	<path id="Vector" d="M398.378 162.492C398.272 162.492 398.169 162.464 398.072 162.411L387.618 156.433C387.459 156.341 387.348 156.182 387.317 156.001C387.286 155.82 387.336 155.633 387.459 155.494L395.006 146.748C395.198 146.525 395.521 146.47 395.781 146.614L406.235 152.593C406.394 152.685 406.505 152.843 406.536 153.024C406.566 153.206 406.516 153.392 406.394 153.532L398.847 162.277C398.727 162.417 398.554 162.492 398.378 162.492ZM388.88 155.733L398.245 161.087L404.97 153.295L395.605 147.941L388.88 155.733Z" fill="#000000" fill-opacity="1.000000" fill-rule="nonzero"/>
	<path id="Vector" d="M386.263 157.788L396.717 163.766L389.17 172.511L378.716 166.533L386.263 157.788Z" fill="#FFFFFF" fill-opacity="1.000000" fill-rule="nonzero"/>
	<path id="Vector" d="M389.17 173.127C389.064 173.127 388.961 173.099 388.863 173.046L378.409 167.068C378.25 166.976 378.139 166.817 378.108 166.636C378.078 166.455 378.128 166.268 378.25 166.129L385.798 157.383C385.99 157.16 386.316 157.104 386.572 157.249L397.026 163.227C397.185 163.319 397.297 163.478 397.327 163.659C397.358 163.841 397.308 164.027 397.185 164.167L389.638 172.912C389.518 173.051 389.346 173.127 389.17 173.127ZM379.672 166.366L389.036 171.719L395.761 163.927L386.397 158.573L379.672 166.366Z" fill="#000000" fill-opacity="1.000000" fill-rule="nonzero"/>
	<path id="Vector" d="M408.049 154.343L418.503 160.321L410.953 169.066L400.499 163.088L408.049 154.343Z" fill="#FFFFFF" fill-opacity="1.000000" fill-rule="nonzero"/>
	<path id="Vector" d="M410.953 169.685C410.847 169.685 410.744 169.657 410.646 169.604L400.192 163.626C400.034 163.534 399.922 163.375 399.892 163.194C399.861 163.013 399.911 162.826 400.034 162.687L407.583 153.941C407.776 153.718 408.102 153.663 408.358 153.807L418.812 159.786C418.971 159.878 419.083 160.036 419.113 160.218C419.144 160.399 419.094 160.585 418.971 160.725L411.424 169.47C411.304 169.61 411.131 169.685 410.956 169.685L410.953 169.685ZM401.455 162.924L410.819 168.277L417.544 160.485L408.183 155.131L401.455 162.924Z" fill="#000000" fill-opacity="1.000000" fill-rule="nonzero"/>
	<path id="Vector" d="M398.838 164.977L409.292 170.955L401.745 179.701L391.291 173.723L398.838 164.977Z" fill="#FFFFFF" fill-opacity="1.000000" fill-rule="nonzero"/>
	<path id="Vector" d="M401.745 180.319C401.639 180.319 401.536 180.291 401.438 180.239L390.984 174.26C390.826 174.169 390.714 174.01 390.684 173.828C390.653 173.647 390.703 173.461 390.826 173.321L398.373 164.576C398.565 164.353 398.891 164.297 399.147 164.442L409.602 170.42C409.76 170.512 409.872 170.671 409.902 170.852C409.933 171.033 409.883 171.22 409.76 171.359L402.213 180.105C402.093 180.244 401.921 180.319 401.745 180.319ZM392.247 173.561L401.611 178.915L408.336 171.122L398.972 165.769L392.247 173.561Z" fill="#000000" fill-opacity="1.000000" fill-rule="nonzero"/>
	<path id="Vector" d="M420.624 161.533L431.078 167.514L423.53 176.259L413.074 170.279L420.624 161.533Z" fill="#FFFFFF" fill-opacity="1.000000" fill-rule="nonzero"/>
	<path id="Vector" d="M423.527 176.875C423.421 176.875 423.318 176.847 423.221 176.794L412.767 170.816C412.608 170.724 412.497 170.566 412.466 170.384C412.435 170.203 412.485 170.016 412.608 169.877L420.155 161.132C420.347 160.909 420.67 160.853 420.93 160.998L431.384 166.976C431.542 167.068 431.654 167.227 431.685 167.408C431.715 167.589 431.665 167.776 431.542 167.915L423.996 176.661C423.875 176.8 423.703 176.875 423.527 176.875ZM414.029 170.117L423.391 175.471L430.116 167.678L420.751 162.324L414.026 170.117L414.029 170.117Z" fill="#000000" fill-opacity="1.000000" fill-rule="nonzero"/>
	<path id="Vector" d="M411.413 172.171L421.867 178.149L414.32 186.894L403.866 180.914L411.413 172.171Z" fill="#FFFFFF" fill-opacity="1.000000" fill-rule="nonzero"/>
	<path id="Vector" d="M414.319 187.51C414.213 187.51 414.11 187.482 414.013 187.43L403.559 181.451C403.4 181.359 403.289 181.201 403.258 181.019C403.227 180.838 403.277 180.652 403.4 180.512L410.947 171.767C411.139 171.544 411.463 171.488 411.722 171.633L422.176 177.611C422.334 177.703 422.446 177.862 422.477 178.043C422.507 178.224 422.457 178.411 422.334 178.55L414.788 187.296C414.667 187.435 414.495 187.51 414.319 187.51ZM404.821 180.752L414.186 186.106L420.911 178.313L411.546 172.96L404.821 180.752Z" fill="#000000" fill-opacity="1.000000" fill-rule="nonzero"/>
	<path id="Vector" d="M397.882 131.339C397.779 131.339 397.673 131.314 397.576 131.258C394.716 129.622 393.718 125.952 395.352 123.076C396.146 121.677 397.434 120.673 398.98 120.25C400.516 119.829 402.124 120.032 403.506 120.821C403.612 120.882 403.718 120.946 403.818 121.013C404.103 121.2 404.184 121.582 403.997 121.869C403.81 122.153 403.428 122.234 403.141 122.047C403.06 121.994 402.979 121.944 402.893 121.897C401.798 121.27 400.527 121.111 399.309 121.442C398.083 121.78 397.06 122.577 396.43 123.686C395.131 125.974 395.923 128.889 398.194 130.188C398.49 130.358 398.593 130.734 398.423 131.03C398.309 131.23 398.1 131.342 397.888 131.342L397.882 131.339Z" fill="#000000" fill-opacity="1.000000" fill-rule="nonzero"/>
	<path id="Vector" d="M404.924 135.366C404.821 135.366 404.715 135.341 404.618 135.285C401.758 133.649 400.761 129.979 402.394 127.103C403.188 125.704 404.476 124.701 406.022 124.277C407.558 123.856 409.167 124.06 410.549 124.848C410.655 124.91 410.758 124.974 410.861 125.038C411.145 125.224 411.226 125.606 411.039 125.893C410.853 126.178 410.471 126.258 410.184 126.072C410.103 126.019 410.019 125.969 409.936 125.921C408.84 125.294 407.566 125.133 406.349 125.467C405.123 125.804 404.1 126.601 403.47 127.71C402.171 129.996 402.962 132.914 405.234 134.212C405.529 134.382 405.632 134.759 405.462 135.054C405.348 135.255 405.139 135.366 404.927 135.366L404.924 135.366Z" fill="#000000" fill-opacity="1.000000" fill-rule="nonzero"/>
	<path id="Vector" d="M411.967 139.393C411.864 139.393 411.758 139.368 411.661 139.312C408.801 137.676 407.803 134.006 409.437 131.13C410.231 129.731 411.519 128.727 413.062 128.304C414.598 127.883 416.206 128.086 417.588 128.875C417.694 128.937 417.797 129.001 417.9 129.065C418.185 129.251 418.266 129.633 418.079 129.92C417.892 130.205 417.51 130.285 417.223 130.099C417.143 130.046 417.059 129.996 416.975 129.945C415.88 129.318 414.606 129.159 413.391 129.491C412.165 129.828 411.142 130.625 410.512 131.735C409.213 134.023 410.005 136.938 412.276 138.237C412.572 138.407 412.675 138.783 412.505 139.078C412.391 139.279 412.182 139.39 411.97 139.39L411.967 139.393Z" fill="#000000" fill-opacity="1.000000" fill-rule="nonzero"/>
	<path id="Vector" d="M419.007 143.421C418.904 143.421 418.798 143.396 418.701 143.34C415.841 141.704 414.843 138.033 416.477 135.157C417.271 133.758 418.559 132.755 420.103 132.331C421.638 131.91 423.246 132.114 424.628 132.903C424.734 132.964 424.837 133.028 424.94 133.095C425.225 133.282 425.306 133.663 425.119 133.95C424.932 134.235 424.55 134.316 424.263 134.129C424.183 134.076 424.102 134.026 424.015 133.978C422.92 133.351 421.646 133.19 420.428 133.524C419.202 133.861 418.179 134.658 417.549 135.768C416.251 138.056 417.042 140.971 419.313 142.27C419.609 142.44 419.712 142.816 419.542 143.111C419.428 143.312 419.219 143.423 419.007 143.423L419.007 143.421Z" fill="#000000" fill-opacity="1.000000" fill-rule="nonzero"/>
	<path id="Vector" d="M426.05 147.448C425.947 147.448 425.841 147.423 425.744 147.367C422.884 145.731 421.886 142.061 423.52 139.185C424.314 137.786 425.602 136.782 427.146 136.359C428.681 135.938 430.289 136.141 431.671 136.93C431.777 136.991 431.88 137.055 431.983 137.119C432.268 137.306 432.349 137.688 432.162 137.975C431.975 138.259 431.593 138.34 431.306 138.153C431.226 138.1 431.142 138.05 431.058 138C429.963 137.373 428.689 137.211 427.471 137.546C426.245 137.883 425.222 138.68 424.592 139.789C423.294 142.077 424.085 144.993 426.356 146.291C426.652 146.461 426.755 146.838 426.585 147.133C426.471 147.331 426.262 147.445 426.05 147.445L426.05 147.448Z" fill="#000000" fill-opacity="1.000000" fill-rule="nonzero"/>
	<path id="Vector" d="M433.09 151.475C432.987 151.475 432.881 151.45 432.784 151.394C429.924 149.758 428.926 146.088 430.56 143.211C431.354 141.812 432.642 140.809 434.186 140.385C435.721 139.965 437.329 140.168 438.711 140.957C438.817 141.018 438.92 141.082 439.023 141.146C439.308 141.333 439.389 141.715 439.202 142.002C439.015 142.286 438.633 142.367 438.346 142.18C438.266 142.127 438.182 142.077 438.098 142.027C437.003 141.4 435.729 141.241 434.511 141.573C433.285 141.91 432.262 142.707 431.632 143.816C430.334 146.104 431.125 149.02 433.396 150.318C433.692 150.488 433.795 150.865 433.625 151.16C433.511 151.361 433.302 151.472 433.09 151.472L433.09 151.475Z" fill="#000000" fill-opacity="1.000000" fill-rule="nonzero"/>
	<path id="Vector" d="M439.73 155.271C439.627 155.271 439.521 155.246 439.424 155.19C436.564 153.554 435.567 149.884 437.2 147.007C437.995 145.608 439.282 144.605 440.829 144.181C442.364 143.761 443.973 143.964 445.355 144.753C447.164 145.787 448.29 147.657 448.362 149.753C448.373 150.093 448.108 150.38 447.766 150.391C447.409 150.408 447.139 150.137 447.127 149.794C447.069 148.128 446.177 146.645 444.739 145.823C443.644 145.196 442.37 145.037 441.155 145.369C439.929 145.706 438.906 146.503 438.276 147.612C436.977 149.9 437.769 152.815 440.04 154.114C440.335 154.284 440.438 154.66 440.269 154.956C440.154 155.157 439.945 155.268 439.733 155.268L439.73 155.271Z" fill="#000000" fill-opacity="1.000000" fill-rule="nonzero"/>
	<path id="Vector" d="M162.951 461.646C162.951 461.646 141.606 414.861 153.852 354.211C153.852 354.211 186.933 381.93 175.008 461.646L162.954 461.646L162.951 461.646Z" fill="#FFFFFF" fill-opacity="1.000000" fill-rule="nonzero"/>
	<path id="Vector" d="M175.005 462.262L162.951 462.262C162.708 462.262 162.491 462.12 162.391 461.899C162.176 461.428 141.104 414.237 153.247 354.085C153.289 353.871 153.442 353.698 153.648 353.626C153.854 353.553 154.083 353.595 154.248 353.734C154.59 354.021 162.714 360.958 169.473 377.803C175.688 393.287 181.797 420.418 175.615 461.735C175.571 462.036 175.312 462.262 175.005 462.262ZM163.355 461.027L174.473 461.027C180.473 420.343 174.473 393.627 168.366 378.36C162.929 364.771 156.452 357.605 154.239 355.42C143.186 411.896 161.443 456.579 163.355 461.027Z" fill="#000000" fill-opacity="1.000000" fill-rule="nonzero"/>
	<path id="Vector" d="M168.171 457.385C168.171 457.385 168.149 457.385 168.138 457.385C167.798 457.365 167.536 457.075 167.556 456.735C169.188 426.823 155.703 362.976 155.566 362.335C155.496 362 155.708 361.674 156.042 361.602C156.374 361.532 156.703 361.744 156.775 362.078C156.912 362.722 170.435 426.725 168.79 456.802C168.773 457.131 168.5 457.385 168.174 457.385L168.171 457.385Z" fill="#000000" fill-opacity="1.000000" fill-rule="nonzero"/>
	<path id="Vector" d="M187.677 385.804C187.677 385.804 160.178 435.49 176.719 456.989L185.567 456.989C185.567 456.989 203.251 418.15 187.677 385.804Z" fill="#FFFFFF" fill-opacity="1.000000" fill-rule="nonzero"/>
	<path id="Vector" d="M185.567 457.608L176.718 457.608C176.526 457.608 176.345 457.518 176.228 457.368C169.235 448.282 168.959 433.406 175.403 413.15C180.174 398.156 187.064 385.634 187.133 385.509C187.245 385.308 187.457 385.183 187.691 385.191C187.922 385.197 188.128 385.333 188.229 385.539C203.75 417.773 186.303 456.858 186.125 457.248C186.024 457.468 185.804 457.61 185.562 457.61L185.567 457.608ZM177.025 456.373L185.163 456.373C186.854 452.418 201.235 417.021 187.641 387.184C183.806 394.508 162.616 437.059 177.025 456.373Z" fill="#000000" fill-opacity="1.000000" fill-rule="nonzero"/>
	<path id="Vector" d="M180.849 458.923C180.52 458.923 180.244 458.661 180.233 458.329C179.436 437.817 186.333 393.192 186.403 392.744C186.457 392.406 186.771 392.178 187.108 392.228C187.446 392.281 187.677 392.596 187.624 392.933C187.554 393.379 180.676 437.89 181.468 458.282C181.481 458.622 181.217 458.909 180.874 458.923C180.866 458.923 180.857 458.923 180.849 458.923Z" fill="#000000" fill-opacity="1.000000" fill-rule="nonzero"/>
	<path id="Vector" d="M131.921 404.105C131.921 404.105 155.349 412.098 163.83 459.418L154.616 459.418C154.616 459.418 135.386 433.43 131.921 404.105Z" fill="#FFFFFF" fill-opacity="1.000000" fill-rule="nonzero"/>
	<path id="Vector" d="M163.83 460.034L154.616 460.034C154.421 460.034 154.237 459.942 154.12 459.784C153.928 459.522 134.753 433.327 131.309 404.178C131.283 403.966 131.37 403.76 131.534 403.626C131.699 403.492 131.921 403.453 132.122 403.523C132.368 403.607 138.214 405.666 145.163 413.612C151.525 420.891 160.034 434.726 164.44 459.31C164.474 459.491 164.423 459.675 164.306 459.814C164.189 459.954 164.017 460.034 163.833 460.034L163.83 460.034ZM154.931 458.8L163.091 458.8C155.661 418.447 137.078 407.23 132.668 405.103C136.208 431.981 152.994 456.094 154.931 458.8Z" fill="#000000" fill-opacity="1.000000" fill-rule="nonzero"/>
	<path id="Vector" d="M158.793 458.7C158.495 458.7 158.236 458.485 158.186 458.184C154.7 437.109 139.611 415.889 139.458 415.677C139.26 415.401 139.321 415.014 139.6 414.816C139.878 414.618 140.263 414.68 140.461 414.958C140.614 415.173 155.87 436.63 159.404 457.984C159.459 458.321 159.231 458.638 158.896 458.694C158.863 458.7 158.83 458.703 158.796 458.703L158.793 458.7Z" fill="#000000" fill-opacity="1.000000" fill-rule="nonzero"/>
	<path id="Vector" d="M140.959 455.662L198.755 455.662L200.051 482.999C200.369 489.702 195.021 495.309 188.31 495.309L155.301 495.309C147.361 495.309 140.929 488.869 140.934 480.929L140.957 455.659L140.959 455.662Z" fill="#000000" fill-opacity="1.000000" fill-rule="nonzero"/>
	<path id="Vector" d="M256.195 24.3387L271.337 24.3387L271.337 194.706L256.195 194.706L256.195 24.3387Z" fill="#FFFFFF" fill-opacity="1.000000" fill-rule="evenodd"/>
	<path id="Vector" d="M256.195 195.322C255.855 195.322 255.579 195.046 255.579 194.706L255.579 24.3387C255.579 23.9987 255.855 23.7228 256.195 23.7228C256.535 23.7228 256.811 23.9987 256.811 24.3387L256.811 194.706C256.811 195.046 256.535 195.322 256.195 195.322Z" fill="#000000" fill-opacity="1.000000" fill-rule="nonzero"/>
	<path id="Vector" d="M271.336 195.322C270.997 195.322 270.721 195.046 270.721 194.706L270.721 24.3387C270.721 23.9987 270.997 23.7228 271.336 23.7228C271.677 23.7228 271.953 23.9987 271.953 24.3387L271.953 194.706C271.953 195.046 271.677 195.322 271.336 195.322Z" fill="#000000" fill-opacity="1.000000" fill-rule="nonzero"/>
	<path id="Vector" d="M318.345 71.9485L378.789 89.5287L421.688 41.8158L318.345 71.9485Z" fill="#FFFFFF" fill-opacity="1.000000" fill-rule="nonzero"/>
	<path id="Vector" d="M378.789 90.1447C378.73 90.1447 378.674 90.1364 378.616 90.1196L318.172 72.5393C317.907 72.4641 317.726 72.2217 317.726 71.9457C317.726 71.6698 317.907 71.4302 318.172 71.3521L421.516 41.2194C421.78 41.1414 422.064 41.25 422.209 41.4841C422.357 41.7183 422.33 42.0193 422.146 42.2255L379.246 89.9357C379.126 90.0667 378.958 90.139 378.786 90.139L378.789 90.1447ZM320.552 71.9485L378.588 88.8264L419.779 43.0142L320.552 71.9457L320.552 71.9485Z" fill="#000000" fill-opacity="1.000000" fill-rule="nonzero"/>
	<path id="Vector" d="M348.46 100.314L340.024 78.2551L406.82 50.0928L350.648 81.343L363.285 85.019L348.46 100.314Z" fill="#FFFFFF" fill-opacity="1.000000" fill-rule="nonzero"/>
	<path id="Vector" d="M348.46 100.93C348.419 100.93 348.377 100.927 348.338 100.916C348.132 100.874 347.962 100.729 347.887 100.531L339.45 78.4723C339.331 78.1602 339.481 77.8118 339.788 77.6836L406.583 49.5212C406.887 49.3931 407.235 49.524 407.377 49.8195C407.522 50.1149 407.408 50.4689 407.124 50.6305L352.245 81.1617L363.46 84.4225C363.669 84.4838 363.828 84.6482 363.884 84.8573C363.939 85.0663 363.881 85.2893 363.73 85.4453L348.907 100.74C348.79 100.86 348.628 100.927 348.463 100.927L348.46 100.93ZM340.816 78.5894L348.692 99.1879L362.128 85.3254L350.479 81.9365C350.239 81.8668 350.066 81.6606 350.038 81.4126C350.01 81.1646 350.133 80.9248 350.35 80.8051L396.608 55.0701L340.816 78.5922L340.816 78.5894Z" fill="#000000" fill-opacity="1.000000" fill-rule="nonzero"/>
	<path id="Vector" d="M349.229 94.2686C349.204 94.2686 349.182 94.2686 349.157 94.2657C348.82 94.2268 348.574 93.9202 348.613 93.583L350.035 81.2758C350.074 80.9357 350.38 80.696 350.718 80.7323C351.055 80.7712 351.3 81.0779 351.261 81.415L349.84 93.7223C349.804 94.0372 349.536 94.2686 349.227 94.2686L349.229 94.2686Z" fill="#000000" fill-opacity="1.000000" fill-rule="nonzero"/>
	<path id="Vector" d="M224.752 498.026C220.614 498.026 216.428 497.912 212.312 497.689C211.972 497.669 211.709 497.38 211.729 497.04C211.749 496.7 212.041 496.44 212.378 496.457C216.473 496.68 220.636 496.794 224.752 496.794C246.037 496.794 267.092 493.807 287.331 487.915C287.657 487.82 288 488.007 288.095 488.336C288.189 488.662 288.003 489.005 287.674 489.102C267.321 495.027 246.151 498.029 224.75 498.029L224.752 498.026Z" fill="#000000" fill-opacity="1.000000" fill-rule="nonzero"/>
	<path id="Vector" d="M353.176 457.609C352.981 457.609 352.789 457.518 352.669 457.347C352.474 457.069 352.541 456.684 352.819 456.489C358.884 452.242 364.806 447.638 370.425 442.808C370.684 442.585 371.074 442.616 371.294 442.872C371.514 443.128 371.486 443.521 371.227 443.741C365.581 448.599 359.625 453.228 353.527 457.498C353.418 457.573 353.296 457.609 353.173 457.609L353.176 457.609Z" fill="#000000" fill-opacity="1.000000" fill-rule="nonzero"/>
	<path id="Vector" d="M153.283 61.3915C153.024 61.3915 152.784 61.2299 152.698 60.9706C152.589 60.6473 152.762 60.2961 153.085 60.1875C176.114 52.4453 200.227 48.5212 224.75 48.5212C228.782 48.5212 232.862 48.6299 236.875 48.8418C237.216 48.8585 237.478 49.1511 237.458 49.4911C237.441 49.8311 237.149 50.0931 236.809 50.0736C232.818 49.8618 228.76 49.7531 224.747 49.7531C200.355 49.7531 176.376 53.6576 153.476 61.3552C153.412 61.3776 153.345 61.3887 153.278 61.3887L153.283 61.3915Z" fill="#000000" fill-opacity="1.000000" fill-rule="nonzero"/>
	<path id="Vector" d="M134.714 68.5735C134.477 68.5735 134.251 68.4369 134.148 68.2056C134.012 67.8934 134.154 67.5283 134.466 67.3918C137.063 66.252 139.719 65.1455 142.356 64.106C142.673 63.9806 143.03 64.1366 143.156 64.4543C143.281 64.7721 143.125 65.1288 142.807 65.2542C140.185 66.2882 137.545 67.3862 134.962 68.5233C134.881 68.5596 134.797 68.5763 134.714 68.5763L134.714 68.5735Z" fill="#000000" fill-opacity="1.000000" fill-rule="nonzero"/>
	<path id="Vector" d="M7.73145 217.657C7.68115 217.657 7.62793 217.651 7.57812 217.637C7.24902 217.551 7.04834 217.217 7.13477 216.885C11.6221 199.522 18.2129 182.697 26.73 166.878C26.8916 166.577 27.2651 166.466 27.5659 166.628C27.8672 166.789 27.9785 167.163 27.8169 167.464C19.3472 183.196 12.7896 199.926 8.33057 217.194C8.25781 217.473 8.00732 217.657 7.73389 217.657L7.73145 217.657Z" fill="#000000" fill-opacity="1.000000" fill-rule="nonzero"/>
	<path id="Vector" d="M24.1714 374.017C23.9458 374.017 23.7256 373.892 23.6196 373.677C7.9458 342.34 0 308.562 0 273.274C0 257.171 1.71143 241.098 5.08643 225.502C5.15869 225.168 5.4873 224.959 5.81934 225.028C6.15381 225.101 6.36523 225.43 6.29297 225.761C2.93457 241.271 1.23486 257.257 1.23486 273.271C1.23486 308.367 9.13574 341.961 24.7231 373.122C24.8765 373.426 24.751 373.797 24.4473 373.95C24.3579 373.995 24.2632 374.014 24.1714 374.014L24.1714 374.017Z" fill="#000000" fill-opacity="1.000000" fill-rule="nonzero"/>
	<path id="Vector" d="M46.0161 176.003C45.9072 176.003 45.7988 175.975 45.6982 175.914C45.4058 175.738 45.311 175.359 45.4868 175.066C53.1704 162.297 62.2949 150.343 72.6094 139.538C72.8438 139.29 73.2363 139.282 73.4819 139.519C73.7271 139.755 73.7383 140.146 73.5015 140.391C63.248 151.129 54.1792 163.01 46.543 175.702C46.4258 175.894 46.2222 176 46.0132 176L46.0161 176.003Z" fill="#000000" fill-opacity="1.000000" fill-rule="nonzero"/>
	<path id="Vector" d="M35.1406 362.822C34.9067 362.822 34.6807 362.688 34.5776 362.46C22.6968 336.218 16.6714 308.189 16.6714 279.151C16.6714 246.536 24.1992 215.4 39.0454 186.61C39.2012 186.306 39.5718 186.189 39.8755 186.345C40.1797 186.501 40.2964 186.875 40.1406 187.176C25.3862 215.79 17.9062 246.736 17.9062 279.154C17.9062 308.016 23.8926 335.872 35.7007 361.952C35.8403 362.262 35.7007 362.63 35.394 362.769C35.3105 362.805 35.2241 362.825 35.1406 362.825L35.1406 362.822Z" fill="#000000" fill-opacity="1.000000" fill-rule="nonzero"/>
	<path id="Vector" d="M340.8 459.299C340.646 459.299 340.493 459.243 340.373 459.126C340.128 458.889 340.12 458.499 340.354 458.253L342.625 455.882C342.862 455.636 343.252 455.628 343.498 455.862C343.743 456.099 343.751 456.489 343.517 456.734L341.246 459.106C341.126 459.232 340.961 459.296 340.8 459.296L340.8 459.299Z" fill="#000000" fill-opacity="1.000000" fill-rule="nonzero"/>
	<path id="Vector" d="M332.851 467.599C332.698 467.599 332.544 467.543 332.424 467.426C332.179 467.189 332.171 466.799 332.405 466.553L334.676 464.182C334.913 463.936 335.304 463.928 335.549 464.162C335.794 464.399 335.802 464.789 335.568 465.034L333.297 467.406C333.177 467.532 333.013 467.596 332.851 467.596L332.851 467.599Z" fill="#000000" fill-opacity="1.000000" fill-rule="nonzero"/>
	<path id="Vector" d="M335.078 459.427C334.921 459.427 334.766 459.368 334.646 459.248L332.341 456.98C332.098 456.74 332.096 456.35 332.335 456.107C332.575 455.865 332.965 455.862 333.208 456.102L335.512 458.37C335.755 458.61 335.758 459 335.518 459.243C335.398 459.365 335.236 459.427 335.078 459.427Z" fill="#000000" fill-opacity="1.000000" fill-rule="nonzero"/>
	<path id="Vector" d="M343.148 467.367C342.992 467.367 342.836 467.308 342.716 467.188L340.412 464.92C340.169 464.68 340.167 464.29 340.406 464.047C340.646 463.805 341.036 463.802 341.278 464.042L343.583 466.31C343.826 466.55 343.829 466.94 343.589 467.183C343.469 467.305 343.307 467.367 343.148 467.367Z" fill="#000000" fill-opacity="1.000000" fill-rule="nonzero"/>
	<path id="Vector" d="M436.531 231.054C436.378 231.054 436.225 230.998 436.104 230.881C435.859 230.644 435.851 230.254 436.085 230.009L438.356 227.637C438.593 227.392 438.984 227.383 439.229 227.617C439.474 227.854 439.482 228.245 439.249 228.49L436.977 230.862C436.857 230.987 436.693 231.051 436.531 231.051L436.531 231.054Z" fill="#000000" fill-opacity="1.000000" fill-rule="nonzero"/>
	<path id="Vector" d="M428.583 239.351C428.43 239.351 428.277 239.295 428.157 239.178C427.912 238.941 427.903 238.551 428.137 238.306L430.409 235.934C430.646 235.689 431.036 235.68 431.281 235.914C431.526 236.151 431.535 236.542 431.301 236.787L429.029 239.158C428.91 239.284 428.745 239.348 428.583 239.348L428.583 239.351Z" fill="#000000" fill-opacity="1.000000" fill-rule="nonzero"/>
	<path id="Vector" d="M430.81 231.179C430.654 231.179 430.498 231.121 430.378 231.001L428.073 228.732C427.831 228.493 427.828 228.103 428.068 227.86C428.307 227.618 428.698 227.615 428.94 227.854L431.245 230.123C431.487 230.363 431.49 230.753 431.25 230.995C431.13 231.118 430.969 231.179 430.81 231.179Z" fill="#000000" fill-opacity="1.000000" fill-rule="nonzero"/>
	<path id="Vector" d="M438.881 239.122C438.725 239.122 438.569 239.064 438.449 238.944L436.144 236.675C435.901 236.435 435.899 236.045 436.139 235.803C436.378 235.56 436.769 235.558 437.011 235.797L439.315 238.066C439.558 238.306 439.561 238.696 439.321 238.938C439.201 239.061 439.04 239.122 438.881 239.122Z" fill="#000000" fill-opacity="1.000000" fill-rule="nonzero"/>
	<path id="Vector" d="M187.558 204.572C187.388 204.572 187.218 204.502 187.095 204.363C185.432 202.49 184.25 200.213 183.581 197.596C183.497 197.265 183.695 196.93 184.027 196.847C184.358 196.763 184.693 196.961 184.776 197.292C185.395 199.717 186.488 201.821 188.018 203.546C188.244 203.8 188.221 204.19 187.965 204.419C187.848 204.522 187.7 204.575 187.555 204.575L187.558 204.572ZM183.595 190.71C183.595 190.71 183.567 190.71 183.556 190.71C183.216 190.687 182.957 190.395 182.979 190.055C183.126 187.739 183.542 185.247 184.216 182.641C184.303 182.312 184.637 182.112 184.969 182.198C185.298 182.285 185.499 182.622 185.412 182.951C184.757 185.478 184.353 187.895 184.211 190.133C184.191 190.459 183.918 190.71 183.595 190.71ZM187.148 176.385C187.073 176.385 186.995 176.371 186.917 176.34C186.602 176.212 186.449 175.852 186.574 175.537C187.48 173.283 188.539 171.003 189.721 168.762C189.879 168.461 190.253 168.344 190.554 168.503C190.855 168.662 190.972 169.035 190.813 169.336C189.651 171.541 188.608 173.782 187.72 175.997C187.622 176.237 187.391 176.385 187.146 176.385L187.148 176.385ZM194.049 163.294C193.932 163.294 193.812 163.261 193.706 163.191C193.422 163.002 193.346 162.62 193.536 162.335C194.673 160.63 195.81 159.105 196.911 157.798C197.31 157.325 197.711 156.862 198.121 156.41C198.349 156.157 198.739 156.137 198.993 156.366C199.247 156.594 199.266 156.984 199.038 157.238C198.639 157.681 198.243 158.135 197.853 158.595C196.783 159.866 195.673 161.357 194.562 163.024C194.442 163.202 194.247 163.297 194.049 163.297L194.049 163.294ZM203.887 152.288C203.711 152.288 203.539 152.213 203.416 152.071C203.196 151.812 203.229 151.422 203.488 151.202C205.372 149.607 207.398 148.114 209.511 146.759C209.798 146.575 210.18 146.659 210.364 146.946C210.547 147.233 210.464 147.615 210.177 147.799C208.109 149.122 206.127 150.586 204.285 152.143C204.168 152.241 204.029 152.288 203.887 152.288ZM216.308 144.301C216.077 144.301 215.857 144.173 215.751 143.95C215.603 143.643 215.734 143.273 216.041 143.128C218.22 142.083 220.542 141.124 222.938 140.277C223.259 140.162 223.613 140.332 223.727 140.653C223.841 140.973 223.671 141.327 223.351 141.442C220.996 142.275 218.716 143.217 216.576 144.242C216.489 144.284 216.4 144.304 216.308 144.304L216.308 144.301ZM230.229 139.34C229.953 139.34 229.703 139.153 229.63 138.875C229.546 138.543 229.747 138.209 230.076 138.125C232.389 137.537 234.839 137.013 237.358 136.567C237.693 136.509 238.013 136.732 238.075 137.069C238.133 137.403 237.91 137.724 237.573 137.785C235.084 138.225 232.662 138.741 230.38 139.323C230.33 139.337 230.276 139.343 230.227 139.343L230.229 139.34ZM244.794 136.729C244.484 136.729 244.217 136.497 244.181 136.183C244.142 135.843 244.384 135.539 244.722 135.497C247.062 135.227 249.554 134.995 252.126 134.817C252.466 134.792 252.762 135.048 252.784 135.391C252.809 135.731 252.553 136.026 252.213 136.049C249.657 136.227 247.185 136.453 244.864 136.723C244.838 136.723 244.816 136.726 244.791 136.726L244.794 136.729ZM296.606 135.895L296.601 135.895C293.825 135.87 291.177 135.798 289.182 135.739C288.842 135.728 288.574 135.444 288.583 135.104C288.594 134.764 288.87 134.502 289.218 134.505C291.208 134.563 293.845 134.636 296.612 134.661C296.952 134.664 297.228 134.942 297.222 135.285C297.22 135.625 296.944 135.895 296.606 135.895ZM304.014 135.831C303.683 135.831 303.407 135.567 303.398 135.232C303.387 134.892 303.658 134.608 303.998 134.597C306.637 134.519 309.047 134.382 311.363 134.176C311.706 134.145 312.001 134.396 312.032 134.736C312.063 135.076 311.812 135.374 311.472 135.405C309.134 135.611 306.701 135.751 304.037 135.829C304.031 135.829 304.025 135.829 304.017 135.829L304.014 135.831ZM259.573 135.667C259.242 135.667 258.968 135.405 258.957 135.071C258.946 134.731 259.211 134.443 259.551 134.432C261.842 134.352 264.269 134.293 266.973 134.257L266.981 134.257C267.318 134.257 267.594 134.527 267.597 134.867C267.603 135.207 267.329 135.489 266.986 135.491C264.294 135.528 261.875 135.583 259.593 135.667C259.584 135.667 259.579 135.667 259.57 135.667L259.573 135.667ZM281.796 135.514C281.796 135.514 281.785 135.514 281.78 135.514C279.857 135.464 278.343 135.438 277.014 135.438L276.897 134.823L276.897 135.438L274.392 135.441C274.051 135.441 273.775 135.165 273.775 134.825C273.775 134.485 274.051 134.207 274.392 134.207L276.9 134.207L277.017 134.204C278.354 134.204 279.879 134.226 281.813 134.279C282.153 134.287 282.424 134.572 282.415 134.912C282.407 135.246 282.131 135.514 281.799 135.514L281.796 135.514ZM318.763 134.463C318.467 134.463 318.208 134.251 318.155 133.953C318.097 133.619 318.32 133.298 318.657 133.24C321.215 132.791 323.612 132.222 325.786 131.551C326.112 131.45 326.458 131.631 326.558 131.958C326.658 132.284 326.477 132.629 326.151 132.729C323.927 133.418 321.48 133.998 318.872 134.455C318.835 134.46 318.799 134.463 318.763 134.463ZM332.815 129.962C332.595 129.962 332.38 129.842 332.269 129.633C332.11 129.332 332.224 128.959 332.525 128.8C334.771 127.61 336.75 126.208 338.411 124.636C338.659 124.402 339.049 124.413 339.283 124.661C339.518 124.909 339.506 125.299 339.258 125.534C337.517 127.181 335.446 128.649 333.102 129.892C333.01 129.943 332.91 129.965 332.812 129.965L332.815 129.962ZM343.291 119.843C343.193 119.843 343.096 119.82 343.004 119.77C342.703 119.611 342.586 119.238 342.748 118.937C343.826 116.894 344.612 114.609 345.083 112.145C345.147 111.81 345.471 111.59 345.805 111.654C346.139 111.719 346.359 112.042 346.295 112.376C345.799 114.96 344.974 117.359 343.84 119.511C343.729 119.72 343.517 119.84 343.294 119.84L343.291 119.843Z" fill="#000000" fill-opacity="1.000000" fill-rule="nonzero"/>
</svg>
